<svg xmlns="http://www.w3.org/2000/svg" version="1.1" xmlns:xlink="http://www.w3.org/1999/xlink" xmlns:svgjs="http://svgjs.com/svgjs" width="1920" height="200" preserveAspectRatio="none" viewBox="0 0 1920 200"><g mask="url(&quot;#SvgjsMask2474&quot;)" fill="none"><rect width="1920" height="200" x="0" y="0" fill="rgba(69, 137, 192, 1)"></rect><g mask="url(&quot;#SvgjsMask2475&quot;)"><path d="M315 117L333 117L351 117L369 117L387 117L405 117L423 117L441 117L459 117L477 117M909 153L927 135L945 135L963 135L981 135L999 135L1017 135L1035 117M225 99L243 81L261 81M549 153L567 135L585 135L603 135M783 153L801 135L819 135L837 135L855 135L873 135L891 135M117 99L135 81M621 153L639 135L657 135L675 135L693 135L711 135L729 135L747 135L765 135M189 99L207 81L225 81M153 99L171 81L189 81M495 135L513 117L531 99L549 99L567 99L585 99L603 99L621 99L639 99L657 99L675 99M531 135L549 135L567 117L585 117L603 117L621 117L639 117L657 117M297 99L315 99M261 99L279 117L297 117M-9 99L9 99L27 99L45 99L63 99L81 99L99 99L117 99L135 99L153 99L171 99L189 99L207 99L225 99L243 99L261 99L279 99L297 99L315 117L333 135L351 135L369 135L387 135L405 135L423 135L441 135L459 135L477 135L495 135L513 135L531 135L549 153L567 153L585 153L603 153L621 153L639 153L657 153L675 153L693 153L711 153L729 153L747 153L765 153L783 153L801 153L819 153L837 153L855 153L873 153L891 153L909 153L927 153L945 153L963 153" stroke="rgba(255, 255, 255, 1)" stroke-width="3"></path><path d="M958.5 153 a4.5 4.5 0 1 0 9 0 a4.5 4.5 0 1 0 -9 0zM472.5 117 a4.5 4.5 0 1 0 9 0 a4.5 4.5 0 1 0 -9 0zM1030.5 117 a4.5 4.5 0 1 0 9 0 a4.5 4.5 0 1 0 -9 0zM256.5 81 a4.5 4.5 0 1 0 9 0 a4.5 4.5 0 1 0 -9 0zM598.5 135 a4.5 4.5 0 1 0 9 0 a4.5 4.5 0 1 0 -9 0zM886.5 135 a4.5 4.5 0 1 0 9 0 a4.5 4.5 0 1 0 -9 0zM130.5 81 a4.5 4.5 0 1 0 9 0 a4.5 4.5 0 1 0 -9 0zM760.5 135 a4.5 4.5 0 1 0 9 0 a4.5 4.5 0 1 0 -9 0zM220.5 81 a4.5 4.5 0 1 0 9 0 a4.5 4.5 0 1 0 -9 0zM184.5 81 a4.5 4.5 0 1 0 9 0 a4.5 4.5 0 1 0 -9 0zM670.5 99 a4.5 4.5 0 1 0 9 0 a4.5 4.5 0 1 0 -9 0zM652.5 117 a4.5 4.5 0 1 0 9 0 a4.5 4.5 0 1 0 -9 0zM310.5 99 a4.5 4.5 0 1 0 9 0 a4.5 4.5 0 1 0 -9 0zM292.5 117 a4.5 4.5 0 1 0 9 0 a4.5 4.5 0 1 0 -9 0z" fill="rgba(255, 255, 255, 1)"></path><path d="M459 153L477 171L495 171L513 171L531 171M189 117L207 135L225 135M981 171L999 153L1017 153L1035 153M1125 171L1143 153M351 153L369 171M1161 171L1179 171L1197 171L1215 171L1233 171L1251 171L1269 171L1287 171L1305 153L1323 153L1341 153L1359 153L1377 153L1395 153L1413 153L1431 153L1449 153L1467 153L1485 153L1503 153M297 135L315 153L333 171L351 171M405 153L423 171L441 171L459 171M1053 171L1071 153L1089 153L1107 153L1125 153L1143 135L1161 135L1179 135L1197 135M243 117L261 117M261 135L279 153L297 153L315 171M-9 117L9 117L27 117L45 117L63 117L81 117L99 117L117 117L135 117L153 117L171 117L189 117L207 117L225 117L243 117L261 135L279 135L297 135L315 135L333 153L351 153L369 153L387 153L405 153L423 153L441 153L459 153L477 153L495 153L513 153L531 153L549 171L567 171L585 171L603 171L621 171L639 171L657 171L675 171L693 171L711 171L729 171L747 171L765 171L783 171L801 171L819 171L837 171L855 171L873 171L891 171L909 171L927 171L945 171L963 171L981 171L999 171L1017 171L1035 171L1053 171L1071 171L1089 171L1107 171L1125 171L1143 171L1161 171L1179 153L1197 153" stroke="rgba(255, 255, 255, 1)" stroke-width="3"></path><path d="M1192.5 153 a4.5 4.5 0 1 0 9 0 a4.5 4.5 0 1 0 -9 0zM526.5 171 a4.5 4.5 0 1 0 9 0 a4.5 4.5 0 1 0 -9 0zM220.5 135 a4.5 4.5 0 1 0 9 0 a4.5 4.5 0 1 0 -9 0zM1030.5 153 a4.5 4.5 0 1 0 9 0 a4.5 4.5 0 1 0 -9 0zM1138.5 153 a4.5 4.5 0 1 0 9 0 a4.5 4.5 0 1 0 -9 0zM364.5 171 a4.5 4.5 0 1 0 9 0 a4.5 4.5 0 1 0 -9 0zM1498.5 153 a4.5 4.5 0 1 0 9 0 a4.5 4.5 0 1 0 -9 0zM346.5 171 a4.5 4.5 0 1 0 9 0 a4.5 4.5 0 1 0 -9 0zM454.5 171 a4.5 4.5 0 1 0 9 0 a4.5 4.5 0 1 0 -9 0zM1192.5 135 a4.5 4.5 0 1 0 9 0 a4.5 4.5 0 1 0 -9 0zM256.5 117 a4.5 4.5 0 1 0 9 0 a4.5 4.5 0 1 0 -9 0zM310.5 171 a4.5 4.5 0 1 0 9 0 a4.5 4.5 0 1 0 -9 0z" fill="rgba(255, 255, 255, 1)"></path><path d="M567 63L585 45L603 45L621 45L639 45M585 63L603 81L621 81L639 81M729 63L747 45L765 45L783 45L801 45L819 45L837 45L855 45L873 45L891 45L909 45L927 45M441 99L459 81L477 63L495 63M513 63L531 81L549 81L567 81M423 81L441 81L459 63M351 81L369 99L387 99L405 99L423 99M765 63L783 81L801 81L819 81L837 81L855 81L873 81L891 81L909 81L927 81L945 81L963 81L981 81M531 63L549 45L567 45M297 81L315 63L333 63L351 63M675 63L693 81L711 81L729 81L747 81L765 99L783 99L801 99L819 99L837 99L855 99L873 117L891 117L909 117L927 117L945 117L963 117L981 99L999 99L1017 99M279 81L297 63M-9 81L9 81L27 81L45 81L63 81L81 81L99 81L117 63L135 63L153 63L171 63L189 63L207 63L225 63L243 63L261 63L279 81L297 81L315 81L333 81L351 81L369 81L387 81L405 81L423 81L441 99L459 99L477 81L495 81L513 63L531 63L549 63L567 63L585 63L603 63L621 63L639 63L657 63L675 63L693 63L711 63L729 63L747 63L765 63L783 63L801 63L819 63L837 63L855 63L873 63L891 63" stroke="rgba(255, 255, 255, 1)" stroke-width="3"></path><path d="M886.5 63 a4.5 4.5 0 1 0 9 0 a4.5 4.5 0 1 0 -9 0zM634.5 45 a4.5 4.5 0 1 0 9 0 a4.5 4.5 0 1 0 -9 0zM634.5 81 a4.5 4.5 0 1 0 9 0 a4.5 4.5 0 1 0 -9 0zM922.5 45 a4.5 4.5 0 1 0 9 0 a4.5 4.5 0 1 0 -9 0zM490.5 63 a4.5 4.5 0 1 0 9 0 a4.5 4.5 0 1 0 -9 0zM562.5 81 a4.5 4.5 0 1 0 9 0 a4.5 4.5 0 1 0 -9 0zM454.5 63 a4.5 4.5 0 1 0 9 0 a4.5 4.5 0 1 0 -9 0zM418.5 99 a4.5 4.5 0 1 0 9 0 a4.5 4.5 0 1 0 -9 0zM976.5 81 a4.5 4.5 0 1 0 9 0 a4.5 4.5 0 1 0 -9 0zM562.5 45 a4.5 4.5 0 1 0 9 0 a4.5 4.5 0 1 0 -9 0zM346.5 63 a4.5 4.5 0 1 0 9 0 a4.5 4.5 0 1 0 -9 0zM1012.5 99 a4.5 4.5 0 1 0 9 0 a4.5 4.5 0 1 0 -9 0zM292.5 63 a4.5 4.5 0 1 0 9 0 a4.5 4.5 0 1 0 -9 0z" fill="rgba(255, 255, 255, 1)"></path><path d="M81 135L99 153M63 135L81 153L99 171M9 135L27 153L45 153L63 153L81 171M-9 135L9 135L27 135L45 135L63 135L81 135L99 135L117 135L135 135L153 135L171 135L189 153L207 153" stroke="rgba(255, 255, 255, 1)" stroke-width="3"></path><path d="M202.5 153 a4.5 4.5 0 1 0 9 0 a4.5 4.5 0 1 0 -9 0zM94.5 153 a4.5 4.5 0 1 0 9 0 a4.5 4.5 0 1 0 -9 0zM94.5 171 a4.5 4.5 0 1 0 9 0 a4.5 4.5 0 1 0 -9 0zM76.5 171 a4.5 4.5 0 1 0 9 0 a4.5 4.5 0 1 0 -9 0z" fill="rgba(255, 255, 255, 1)"></path><path d="M369 45L387 63L405 63L423 63M45 63L63 45L81 45L99 45M27 63L45 45M9 63L27 45M-9 63L9 63L27 63L45 63L63 63L81 63L99 63L117 45L135 45L153 45L171 45L189 45L207 45L225 45L243 45L261 45L279 45L297 45L315 45L333 45L351 45L369 45L387 45L405 45L423 45L441 45L459 45L477 45L495 45" stroke="rgba(255, 255, 255, 1)" stroke-width="3"></path><path d="M490.5 45 a4.5 4.5 0 1 0 9 0 a4.5 4.5 0 1 0 -9 0zM418.5 63 a4.5 4.5 0 1 0 9 0 a4.5 4.5 0 1 0 -9 0zM94.5 45 a4.5 4.5 0 1 0 9 0 a4.5 4.5 0 1 0 -9 0zM40.5 45 a4.5 4.5 0 1 0 9 0 a4.5 4.5 0 1 0 -9 0zM22.5 45 a4.5 4.5 0 1 0 9 0 a4.5 4.5 0 1 0 -9 0z" fill="rgba(255, 255, 255, 1)"></path></g></g><defs><mask id="SvgjsMask2474"><rect width="1920" height="200" fill="#ffffff"></rect></mask><mask id="SvgjsMask2475"><rect width="1920" height="200" fill="white"></rect><path d="M960.75 153 a2.25 2.25 0 1 0 4.5 0 a2.25 2.25 0 1 0 -4.5 0zM474.75 117 a2.25 2.25 0 1 0 4.5 0 a2.25 2.25 0 1 0 -4.5 0zM1032.75 117 a2.25 2.25 0 1 0 4.5 0 a2.25 2.25 0 1 0 -4.5 0zM258.75 81 a2.25 2.25 0 1 0 4.5 0 a2.25 2.25 0 1 0 -4.5 0zM600.75 135 a2.25 2.25 0 1 0 4.5 0 a2.25 2.25 0 1 0 -4.5 0zM888.75 135 a2.25 2.25 0 1 0 4.5 0 a2.25 2.25 0 1 0 -4.5 0zM132.75 81 a2.25 2.25 0 1 0 4.5 0 a2.25 2.25 0 1 0 -4.5 0zM762.75 135 a2.25 2.25 0 1 0 4.5 0 a2.25 2.25 0 1 0 -4.5 0zM222.75 81 a2.25 2.25 0 1 0 4.5 0 a2.25 2.25 0 1 0 -4.5 0zM186.75 81 a2.25 2.25 0 1 0 4.5 0 a2.25 2.25 0 1 0 -4.5 0zM672.75 99 a2.25 2.25 0 1 0 4.5 0 a2.25 2.25 0 1 0 -4.5 0zM654.75 117 a2.25 2.25 0 1 0 4.5 0 a2.25 2.25 0 1 0 -4.5 0zM312.75 99 a2.25 2.25 0 1 0 4.5 0 a2.25 2.25 0 1 0 -4.5 0zM294.75 117 a2.25 2.25 0 1 0 4.5 0 a2.25 2.25 0 1 0 -4.5 0z" fill="black"></path><path d="M1194.75 153 a2.25 2.25 0 1 0 4.5 0 a2.25 2.25 0 1 0 -4.5 0zM528.75 171 a2.25 2.25 0 1 0 4.5 0 a2.25 2.25 0 1 0 -4.5 0zM222.75 135 a2.25 2.25 0 1 0 4.5 0 a2.25 2.25 0 1 0 -4.5 0zM1032.75 153 a2.25 2.25 0 1 0 4.5 0 a2.25 2.25 0 1 0 -4.5 0zM1140.75 153 a2.25 2.25 0 1 0 4.5 0 a2.25 2.25 0 1 0 -4.5 0zM366.75 171 a2.25 2.25 0 1 0 4.5 0 a2.25 2.25 0 1 0 -4.5 0zM1500.75 153 a2.25 2.25 0 1 0 4.5 0 a2.25 2.25 0 1 0 -4.5 0zM348.75 171 a2.25 2.25 0 1 0 4.5 0 a2.25 2.25 0 1 0 -4.5 0zM456.75 171 a2.25 2.25 0 1 0 4.5 0 a2.25 2.25 0 1 0 -4.5 0zM1194.75 135 a2.25 2.25 0 1 0 4.5 0 a2.25 2.25 0 1 0 -4.5 0zM258.75 117 a2.25 2.25 0 1 0 4.5 0 a2.25 2.25 0 1 0 -4.5 0zM312.75 171 a2.25 2.25 0 1 0 4.5 0 a2.25 2.25 0 1 0 -4.5 0z" fill="black"></path><path d="M888.75 63 a2.25 2.25 0 1 0 4.5 0 a2.25 2.25 0 1 0 -4.5 0zM636.75 45 a2.25 2.25 0 1 0 4.5 0 a2.25 2.25 0 1 0 -4.5 0zM636.75 81 a2.25 2.25 0 1 0 4.5 0 a2.25 2.25 0 1 0 -4.5 0zM924.75 45 a2.25 2.25 0 1 0 4.5 0 a2.25 2.25 0 1 0 -4.5 0zM492.75 63 a2.25 2.25 0 1 0 4.5 0 a2.25 2.25 0 1 0 -4.5 0zM564.75 81 a2.25 2.25 0 1 0 4.5 0 a2.25 2.25 0 1 0 -4.5 0zM456.75 63 a2.25 2.25 0 1 0 4.5 0 a2.25 2.25 0 1 0 -4.5 0zM420.75 99 a2.25 2.25 0 1 0 4.5 0 a2.25 2.25 0 1 0 -4.5 0zM978.75 81 a2.25 2.25 0 1 0 4.5 0 a2.25 2.25 0 1 0 -4.5 0zM564.75 45 a2.25 2.25 0 1 0 4.5 0 a2.25 2.25 0 1 0 -4.5 0zM348.75 63 a2.25 2.25 0 1 0 4.5 0 a2.25 2.25 0 1 0 -4.5 0zM1014.75 99 a2.25 2.25 0 1 0 4.5 0 a2.25 2.25 0 1 0 -4.5 0zM294.75 63 a2.25 2.25 0 1 0 4.5 0 a2.25 2.25 0 1 0 -4.5 0z" fill="black"></path><path d="M204.75 153 a2.25 2.25 0 1 0 4.5 0 a2.25 2.25 0 1 0 -4.5 0zM96.75 153 a2.25 2.25 0 1 0 4.5 0 a2.25 2.25 0 1 0 -4.5 0zM96.75 171 a2.25 2.25 0 1 0 4.5 0 a2.25 2.25 0 1 0 -4.5 0zM78.75 171 a2.25 2.25 0 1 0 4.5 0 a2.25 2.25 0 1 0 -4.5 0z" fill="black"></path><path d="M492.75 45 a2.25 2.25 0 1 0 4.5 0 a2.25 2.25 0 1 0 -4.5 0zM420.75 63 a2.25 2.25 0 1 0 4.5 0 a2.25 2.25 0 1 0 -4.5 0zM96.75 45 a2.25 2.25 0 1 0 4.5 0 a2.25 2.25 0 1 0 -4.5 0zM42.75 45 a2.25 2.25 0 1 0 4.5 0 a2.25 2.25 0 1 0 -4.5 0zM24.75 45 a2.25 2.25 0 1 0 4.5 0 a2.25 2.25 0 1 0 -4.5 0z" fill="black"></path></mask></defs></svg>