<svg xmlns="http://www.w3.org/2000/svg" version="1.1" xmlns:xlink="http://www.w3.org/1999/xlink" xmlns:svgjs="http://svgjs.com/svgjs" width="1920" height="1080" preserveAspectRatio="none" viewBox="0 0 1920 1080"><g mask="url(&quot;#SvgjsMask2346&quot;)" fill="none"><rect width="1920" height="1080" x="0" y="0" fill="url(#SvgjsLinearGradient2347)"></rect><g><path d="M-9.5 541.5L9.5 541.5L28.5 541.5" stroke="url(#SvgjsLinearGradient2348)" stroke-width="3.17"></path><path d="M25.33 541.5 a3.17 3.17 0 1 0 6.34 0 a3.17 3.17 0 1 0 -6.34 0z" fill="url(#SvgjsLinearGradient2348)"></path><path d="M142.5 522.5L161.5 541.5L180.5 541.5L199.5 541.5L218.5 541.5L237.5 541.5L256.5 541.5L275.5 541.5L294.5 541.5M389.5 522.5L408.5 541.5L427.5 541.5L446.5 541.5M47.5 522.5L66.5 541.5L85.5 541.5L104.5 541.5M256.5 503.5L275.5 522.5L294.5 522.5L313.5 522.5L332.5 522.5L351.5 522.5L370.5 541.5L389.5 541.5M598.5 503.5L617.5 503.5L636.5 503.5L655.5 503.5L674.5 503.5L693.5 522.5M351.5 503.5L370.5 503.5L389.5 503.5L408.5 503.5M237.5 503.5L256.5 522.5M218.5 522.5L237.5 522.5M-9.5 522.5L9.5 522.5L28.5 522.5L47.5 522.5L66.5 522.5L85.5 522.5L104.5 522.5L123.5 522.5L142.5 522.5L161.5 522.5L180.5 522.5L199.5 522.5L218.5 522.5L237.5 503.5L256.5 503.5L275.5 503.5L294.5 503.5L313.5 503.5L332.5 503.5L351.5 503.5L370.5 522.5L389.5 522.5L408.5 522.5L427.5 522.5L446.5 522.5L465.5 522.5L484.5 522.5L503.5 522.5L522.5 522.5L541.5 503.5L560.5 503.5L579.5 503.5L598.5 503.5L617.5 522.5L636.5 522.5" stroke="url(#SvgjsLinearGradient2348)" stroke-width="3.17"></path><path d="M633.33 522.5 a3.17 3.17 0 1 0 6.34 0 a3.17 3.17 0 1 0 -6.34 0zM291.33 541.5 a3.17 3.17 0 1 0 6.34 0 a3.17 3.17 0 1 0 -6.34 0zM443.33 541.5 a3.17 3.17 0 1 0 6.34 0 a3.17 3.17 0 1 0 -6.34 0zM101.33 541.5 a3.17 3.17 0 1 0 6.34 0 a3.17 3.17 0 1 0 -6.34 0zM386.33 541.5 a3.17 3.17 0 1 0 6.34 0 a3.17 3.17 0 1 0 -6.34 0zM690.33 522.5 a3.17 3.17 0 1 0 6.34 0 a3.17 3.17 0 1 0 -6.34 0zM405.33 503.5 a3.17 3.17 0 1 0 6.34 0 a3.17 3.17 0 1 0 -6.34 0zM253.33 522.5 a3.17 3.17 0 1 0 6.34 0 a3.17 3.17 0 1 0 -6.34 0zM234.33 522.5 a3.17 3.17 0 1 0 6.34 0 a3.17 3.17 0 1 0 -6.34 0z" fill="url(#SvgjsLinearGradient2348)"></path><path d="M1738.5 465.5L1757.5 484.5L1776.5 484.5L1795.5 484.5L1814.5 503.5L1833.5 503.5L1852.5 503.5L1871.5 503.5L1890.5 503.5M978.5 522.5L997.5 541.5L1016.5 541.5L1035.5 541.5L1054.5 541.5M1263.5 503.5L1282.5 522.5L1301.5 522.5L1320.5 522.5L1339.5 522.5L1358.5 541.5L1377.5 541.5L1396.5 541.5L1415.5 541.5M959.5 541.5L978.5 541.5L997.5 560.5L1016.5 560.5L1035.5 560.5L1054.5 560.5L1073.5 560.5L1092.5 560.5L1111.5 560.5L1130.5 560.5L1149.5 560.5L1168.5 560.5L1187.5 560.5L1206.5 560.5L1225.5 560.5L1244.5 560.5L1263.5 560.5L1282.5 560.5L1301.5 579.5M655.5 541.5L674.5 541.5L693.5 541.5L712.5 541.5L731.5 541.5L750.5 541.5L769.5 541.5L788.5 541.5L807.5 541.5L826.5 522.5L845.5 522.5M541.5 541.5L560.5 560.5L579.5 560.5L598.5 560.5L617.5 560.5L636.5 560.5L655.5 560.5M351.5 579.5L370.5 560.5L389.5 560.5M1225.5 522.5L1244.5 522.5L1263.5 522.5L1282.5 541.5L1301.5 541.5L1320.5 541.5L1339.5 541.5L1358.5 560.5L1377.5 560.5L1396.5 560.5L1415.5 579.5L1434.5 579.5L1453.5 579.5L1472.5 579.5L1491.5 579.5L1510.5 579.5L1529.5 579.5M1016.5 522.5L1035.5 503.5L1054.5 503.5L1073.5 503.5L1092.5 503.5L1111.5 503.5L1130.5 503.5L1149.5 503.5L1168.5 503.5L1187.5 503.5L1206.5 503.5L1225.5 503.5L1244.5 484.5L1263.5 484.5L1282.5 484.5M1396.5 484.5L1415.5 503.5L1434.5 503.5L1453.5 503.5L1472.5 522.5L1491.5 522.5L1510.5 522.5L1529.5 522.5L1548.5 522.5L1567.5 522.5L1586.5 522.5L1605.5 522.5L1624.5 522.5L1643.5 522.5L1662.5 522.5L1681.5 522.5L1700.5 522.5L1719.5 522.5L1738.5 522.5L1757.5 522.5L1776.5 522.5L1795.5 522.5L1814.5 522.5L1833.5 522.5L1852.5 522.5L1871.5 522.5L1890.5 522.5M1605.5 484.5L1624.5 503.5L1643.5 503.5L1662.5 503.5M1681.5 484.5L1700.5 465.5L1719.5 465.5L1738.5 446.5L1757.5 446.5L1776.5 446.5L1795.5 446.5L1814.5 446.5L1833.5 446.5L1852.5 446.5L1871.5 446.5L1890.5 446.5M28.5 560.5L47.5 579.5L66.5 579.5L85.5 579.5L104.5 579.5M826.5 560.5L845.5 560.5L864.5 541.5L883.5 541.5L902.5 560.5L921.5 560.5L940.5 560.5L959.5 560.5L978.5 560.5L997.5 579.5L1016.5 579.5L1035.5 579.5L1054.5 579.5L1073.5 579.5L1092.5 579.5L1111.5 579.5L1130.5 579.5L1149.5 579.5M1643.5 484.5L1662.5 465.5L1681.5 465.5L1700.5 446.5L1719.5 446.5M256.5 579.5L275.5 598.5L294.5 598.5L313.5 598.5M731.5 560.5L750.5 579.5L769.5 579.5L788.5 579.5L807.5 579.5L826.5 579.5L845.5 579.5L864.5 579.5L883.5 579.5L902.5 579.5L921.5 579.5L940.5 579.5L959.5 579.5L978.5 579.5L997.5 598.5L1016.5 617.5L1035.5 617.5L1054.5 617.5L1073.5 617.5L1092.5 617.5L1111.5 617.5L1130.5 617.5L1149.5 617.5L1168.5 617.5L1187.5 617.5M142.5 560.5L161.5 579.5M560.5 541.5L579.5 522.5L598.5 522.5M484.5 541.5L503.5 560.5L522.5 560.5L541.5 560.5L560.5 579.5M294.5 579.5L313.5 560.5L332.5 560.5L351.5 541.5M1149.5 522.5L1168.5 541.5L1187.5 541.5L1206.5 541.5L1225.5 541.5L1244.5 541.5L1263.5 541.5M1472.5 484.5L1491.5 503.5L1510.5 503.5L1529.5 503.5L1548.5 503.5L1567.5 503.5L1586.5 503.5L1605.5 503.5M180.5 579.5L199.5 560.5L218.5 560.5L237.5 560.5L256.5 560.5L275.5 560.5L294.5 560.5M-9.5 560.5L9.5 560.5L28.5 560.5L47.5 560.5L66.5 560.5L85.5 560.5L104.5 560.5L123.5 560.5L142.5 560.5L161.5 560.5L180.5 579.5L199.5 579.5L218.5 579.5L237.5 579.5L256.5 579.5L275.5 579.5L294.5 579.5L313.5 579.5L332.5 579.5L351.5 579.5L370.5 579.5L389.5 579.5L408.5 560.5L427.5 560.5L446.5 560.5L465.5 541.5L484.5 541.5L503.5 541.5L522.5 541.5L541.5 541.5L560.5 541.5L579.5 541.5L598.5 541.5L617.5 541.5L636.5 541.5L655.5 541.5L674.5 560.5L693.5 560.5L712.5 560.5L731.5 560.5L750.5 560.5L769.5 560.5L788.5 560.5L807.5 560.5L826.5 560.5L845.5 541.5L864.5 522.5L883.5 522.5L902.5 541.5L921.5 541.5L940.5 541.5L959.5 541.5L978.5 522.5L997.5 522.5L1016.5 522.5L1035.5 522.5L1054.5 522.5L1073.5 522.5L1092.5 522.5L1111.5 522.5L1130.5 522.5L1149.5 522.5L1168.5 522.5L1187.5 522.5L1206.5 522.5L1225.5 522.5L1244.5 503.5L1263.5 503.5L1282.5 503.5L1301.5 503.5L1320.5 503.5L1339.5 503.5L1358.5 503.5L1377.5 503.5L1396.5 484.5L1415.5 484.5L1434.5 484.5L1453.5 484.5L1472.5 484.5L1491.5 484.5L1510.5 484.5L1529.5 484.5L1548.5 484.5L1567.5 484.5L1586.5 484.5L1605.5 484.5L1624.5 484.5L1643.5 484.5L1662.5 484.5L1681.5 484.5L1700.5 484.5L1719.5 484.5L1738.5 465.5L1757.5 465.5L1776.5 465.5L1795.5 465.5L1814.5 465.5" stroke="url(#SvgjsLinearGradient2348)" stroke-width="3.17"></path><path d="M1811.33 465.5 a3.17 3.17 0 1 0 6.34 0 a3.17 3.17 0 1 0 -6.34 0zM1887.33 503.5 a3.17 3.17 0 1 0 6.34 0 a3.17 3.17 0 1 0 -6.34 0zM1051.33 541.5 a3.17 3.17 0 1 0 6.34 0 a3.17 3.17 0 1 0 -6.34 0zM1412.33 541.5 a3.17 3.17 0 1 0 6.34 0 a3.17 3.17 0 1 0 -6.34 0zM1298.33 579.5 a3.17 3.17 0 1 0 6.34 0 a3.17 3.17 0 1 0 -6.34 0zM842.33 522.5 a3.17 3.17 0 1 0 6.34 0 a3.17 3.17 0 1 0 -6.34 0zM652.33 560.5 a3.17 3.17 0 1 0 6.34 0 a3.17 3.17 0 1 0 -6.34 0zM386.33 560.5 a3.17 3.17 0 1 0 6.34 0 a3.17 3.17 0 1 0 -6.34 0zM1526.33 579.5 a3.17 3.17 0 1 0 6.34 0 a3.17 3.17 0 1 0 -6.34 0zM1279.33 484.5 a3.17 3.17 0 1 0 6.34 0 a3.17 3.17 0 1 0 -6.34 0zM1887.33 522.5 a3.17 3.17 0 1 0 6.34 0 a3.17 3.17 0 1 0 -6.34 0zM1659.33 503.5 a3.17 3.17 0 1 0 6.34 0 a3.17 3.17 0 1 0 -6.34 0zM1887.33 446.5 a3.17 3.17 0 1 0 6.34 0 a3.17 3.17 0 1 0 -6.34 0zM101.33 579.5 a3.17 3.17 0 1 0 6.34 0 a3.17 3.17 0 1 0 -6.34 0zM1146.33 579.5 a3.17 3.17 0 1 0 6.34 0 a3.17 3.17 0 1 0 -6.34 0zM1716.33 446.5 a3.17 3.17 0 1 0 6.34 0 a3.17 3.17 0 1 0 -6.34 0zM310.33 598.5 a3.17 3.17 0 1 0 6.34 0 a3.17 3.17 0 1 0 -6.34 0zM1184.33 617.5 a3.17 3.17 0 1 0 6.34 0 a3.17 3.17 0 1 0 -6.34 0zM158.33 579.5 a3.17 3.17 0 1 0 6.34 0 a3.17 3.17 0 1 0 -6.34 0zM595.33 522.5 a3.17 3.17 0 1 0 6.34 0 a3.17 3.17 0 1 0 -6.34 0zM557.33 579.5 a3.17 3.17 0 1 0 6.34 0 a3.17 3.17 0 1 0 -6.34 0zM348.33 541.5 a3.17 3.17 0 1 0 6.34 0 a3.17 3.17 0 1 0 -6.34 0zM1260.33 541.5 a3.17 3.17 0 1 0 6.34 0 a3.17 3.17 0 1 0 -6.34 0zM1602.33 503.5 a3.17 3.17 0 1 0 6.34 0 a3.17 3.17 0 1 0 -6.34 0zM291.33 560.5 a3.17 3.17 0 1 0 6.34 0 a3.17 3.17 0 1 0 -6.34 0z" fill="url(#SvgjsLinearGradient2348)"></path><path d="M921.5 503.5L940.5 522.5L959.5 522.5M1035.5 484.5L1054.5 465.5L1073.5 465.5L1092.5 465.5L1111.5 465.5L1130.5 465.5L1149.5 465.5L1168.5 465.5L1187.5 465.5L1206.5 446.5L1225.5 446.5L1244.5 446.5L1263.5 427.5L1282.5 427.5M427.5 484.5L446.5 484.5L465.5 484.5L484.5 484.5L503.5 484.5L522.5 484.5L541.5 465.5L560.5 465.5L579.5 465.5L598.5 465.5L617.5 465.5L636.5 465.5L655.5 465.5L674.5 465.5L693.5 465.5L712.5 446.5L731.5 446.5L750.5 446.5L769.5 446.5L788.5 427.5L807.5 427.5L826.5 446.5L845.5 446.5L864.5 446.5L883.5 446.5L902.5 446.5L921.5 446.5L940.5 446.5L959.5 446.5L978.5 446.5L997.5 465.5L1016.5 465.5L1035.5 465.5L1054.5 446.5L1073.5 446.5M1548.5 465.5L1567.5 446.5M370.5 484.5L389.5 465.5L408.5 465.5L427.5 465.5L446.5 465.5L465.5 465.5L484.5 465.5L503.5 465.5M1472.5 465.5L1491.5 446.5L1510.5 446.5L1529.5 446.5L1548.5 446.5M750.5 503.5L769.5 484.5M883.5 503.5L902.5 484.5L921.5 484.5L940.5 484.5L959.5 484.5L978.5 465.5M1434.5 465.5L1453.5 446.5L1472.5 446.5L1491.5 427.5L1510.5 427.5L1529.5 427.5M674.5 484.5L693.5 484.5L712.5 484.5L731.5 484.5L750.5 484.5L769.5 465.5L788.5 465.5L807.5 484.5M294.5 484.5L313.5 465.5L332.5 465.5L351.5 465.5L370.5 465.5M769.5 503.5L788.5 522.5L807.5 522.5M864.5 503.5L883.5 484.5L902.5 465.5M845.5 503.5L864.5 484.5L883.5 465.5M902.5 503.5L921.5 522.5M1320.5 484.5L1339.5 465.5L1358.5 446.5L1377.5 446.5L1396.5 446.5L1415.5 446.5L1434.5 446.5L1453.5 427.5L1472.5 427.5M978.5 503.5L997.5 484.5M1301.5 484.5L1320.5 465.5L1339.5 446.5M1187.5 484.5L1206.5 484.5L1225.5 484.5M1605.5 465.5L1624.5 446.5M712.5 503.5L731.5 522.5L750.5 522.5M-9.5 503.5L9.5 503.5L28.5 503.5L47.5 503.5L66.5 503.5L85.5 503.5L104.5 503.5L123.5 503.5L142.5 503.5L161.5 503.5L180.5 503.5L199.5 503.5L218.5 503.5L237.5 484.5L256.5 484.5L275.5 484.5L294.5 484.5L313.5 484.5L332.5 484.5L351.5 484.5L370.5 484.5L389.5 484.5L408.5 484.5L427.5 484.5L446.5 503.5L465.5 503.5L484.5 503.5L503.5 503.5L522.5 503.5L541.5 484.5L560.5 484.5L579.5 484.5L598.5 484.5L617.5 484.5L636.5 484.5L655.5 484.5L674.5 484.5L693.5 503.5L712.5 503.5L731.5 503.5L750.5 503.5L769.5 503.5L788.5 503.5L807.5 503.5L826.5 503.5L845.5 503.5L864.5 503.5L883.5 503.5L902.5 503.5L921.5 503.5L940.5 503.5L959.5 503.5L978.5 503.5L997.5 503.5L1016.5 484.5L1035.5 484.5L1054.5 484.5L1073.5 484.5L1092.5 484.5L1111.5 484.5L1130.5 484.5L1149.5 484.5L1168.5 484.5L1187.5 484.5L1206.5 465.5L1225.5 465.5L1244.5 465.5L1263.5 465.5L1282.5 465.5L1301.5 484.5L1320.5 484.5L1339.5 484.5L1358.5 484.5L1377.5 484.5L1396.5 465.5L1415.5 465.5L1434.5 465.5L1453.5 465.5L1472.5 465.5L1491.5 465.5L1510.5 465.5L1529.5 465.5L1548.5 465.5L1567.5 465.5L1586.5 465.5L1605.5 465.5L1624.5 465.5" stroke="url(#SvgjsLinearGradient2348)" stroke-width="3.17"></path><path d="M1621.33 465.5 a3.17 3.17 0 1 0 6.34 0 a3.17 3.17 0 1 0 -6.34 0zM956.33 522.5 a3.17 3.17 0 1 0 6.34 0 a3.17 3.17 0 1 0 -6.34 0zM1279.33 427.5 a3.17 3.17 0 1 0 6.34 0 a3.17 3.17 0 1 0 -6.34 0zM1070.33 446.5 a3.17 3.17 0 1 0 6.34 0 a3.17 3.17 0 1 0 -6.34 0zM1564.33 446.5 a3.17 3.17 0 1 0 6.34 0 a3.17 3.17 0 1 0 -6.34 0zM500.33 465.5 a3.17 3.17 0 1 0 6.34 0 a3.17 3.17 0 1 0 -6.34 0zM1545.33 446.5 a3.17 3.17 0 1 0 6.34 0 a3.17 3.17 0 1 0 -6.34 0zM766.33 484.5 a3.17 3.17 0 1 0 6.34 0 a3.17 3.17 0 1 0 -6.34 0zM975.33 465.5 a3.17 3.17 0 1 0 6.34 0 a3.17 3.17 0 1 0 -6.34 0zM1526.33 427.5 a3.17 3.17 0 1 0 6.34 0 a3.17 3.17 0 1 0 -6.34 0zM804.33 484.5 a3.17 3.17 0 1 0 6.34 0 a3.17 3.17 0 1 0 -6.34 0zM367.33 465.5 a3.17 3.17 0 1 0 6.34 0 a3.17 3.17 0 1 0 -6.34 0zM804.33 522.5 a3.17 3.17 0 1 0 6.34 0 a3.17 3.17 0 1 0 -6.34 0zM899.33 465.5 a3.17 3.17 0 1 0 6.34 0 a3.17 3.17 0 1 0 -6.34 0zM880.33 465.5 a3.17 3.17 0 1 0 6.34 0 a3.17 3.17 0 1 0 -6.34 0zM918.33 522.5 a3.17 3.17 0 1 0 6.34 0 a3.17 3.17 0 1 0 -6.34 0zM1469.33 427.5 a3.17 3.17 0 1 0 6.34 0 a3.17 3.17 0 1 0 -6.34 0zM994.33 484.5 a3.17 3.17 0 1 0 6.34 0 a3.17 3.17 0 1 0 -6.34 0zM1336.33 446.5 a3.17 3.17 0 1 0 6.34 0 a3.17 3.17 0 1 0 -6.34 0zM1222.33 484.5 a3.17 3.17 0 1 0 6.34 0 a3.17 3.17 0 1 0 -6.34 0zM1621.33 446.5 a3.17 3.17 0 1 0 6.34 0 a3.17 3.17 0 1 0 -6.34 0zM747.33 522.5 a3.17 3.17 0 1 0 6.34 0 a3.17 3.17 0 1 0 -6.34 0z" fill="url(#SvgjsLinearGradient2348)"></path><path d="M-9.5 579.5L9.5 579.5" stroke="url(#SvgjsLinearGradient2348)" stroke-width="3.17"></path><path d="M6.33 579.5 a3.17 3.17 0 1 0 6.34 0 a3.17 3.17 0 1 0 -6.34 0z" fill="url(#SvgjsLinearGradient2348)"></path><path d="M-9.5 484.5L9.5 484.5L28.5 484.5L47.5 484.5L66.5 484.5L85.5 484.5L104.5 484.5L123.5 484.5L142.5 484.5L161.5 484.5L180.5 484.5L199.5 484.5L218.5 484.5L237.5 465.5L256.5 465.5L275.5 465.5" stroke="url(#SvgjsLinearGradient2348)" stroke-width="3.17"></path><path d="M272.33 465.5 a3.17 3.17 0 1 0 6.34 0 a3.17 3.17 0 1 0 -6.34 0z" fill="url(#SvgjsLinearGradient2348)"></path><path d="M332.5 598.5L351.5 617.5M370.5 598.5L389.5 617.5L408.5 617.5L427.5 617.5M313.5 617.5L332.5 617.5M123.5 598.5L142.5 579.5M256.5 617.5L275.5 636.5L294.5 636.5M-9.5 598.5L9.5 598.5L28.5 598.5L47.5 598.5L66.5 598.5L85.5 598.5L104.5 598.5L123.5 598.5L142.5 598.5L161.5 598.5L180.5 598.5L199.5 598.5L218.5 598.5L237.5 598.5L256.5 617.5L275.5 617.5L294.5 617.5L313.5 617.5L332.5 598.5L351.5 598.5L370.5 598.5L389.5 598.5" stroke="url(#SvgjsLinearGradient2348)" stroke-width="3.17"></path><path d="M386.33 598.5 a3.17 3.17 0 1 0 6.34 0 a3.17 3.17 0 1 0 -6.34 0zM348.33 617.5 a3.17 3.17 0 1 0 6.34 0 a3.17 3.17 0 1 0 -6.34 0zM424.33 617.5 a3.17 3.17 0 1 0 6.34 0 a3.17 3.17 0 1 0 -6.34 0zM329.33 617.5 a3.17 3.17 0 1 0 6.34 0 a3.17 3.17 0 1 0 -6.34 0zM139.33 579.5 a3.17 3.17 0 1 0 6.34 0 a3.17 3.17 0 1 0 -6.34 0zM291.33 636.5 a3.17 3.17 0 1 0 6.34 0 a3.17 3.17 0 1 0 -6.34 0z" fill="url(#SvgjsLinearGradient2348)"></path><path d="M655.5 408.5L674.5 427.5L693.5 427.5L712.5 427.5L731.5 427.5L750.5 427.5L769.5 427.5M1054.5 408.5L1073.5 427.5L1092.5 427.5L1111.5 427.5L1130.5 427.5L1149.5 427.5L1168.5 427.5L1187.5 427.5L1206.5 427.5L1225.5 427.5L1244.5 427.5M1073.5 408.5L1092.5 389.5L1111.5 389.5L1130.5 389.5L1149.5 389.5L1168.5 389.5L1187.5 389.5L1206.5 389.5L1225.5 389.5L1244.5 389.5L1263.5 389.5L1282.5 370.5L1301.5 351.5L1320.5 351.5L1339.5 351.5L1358.5 351.5M1567.5 427.5L1586.5 408.5L1605.5 408.5L1624.5 389.5L1643.5 389.5L1662.5 389.5L1681.5 389.5L1700.5 389.5L1719.5 389.5L1738.5 389.5L1757.5 389.5L1776.5 389.5L1795.5 389.5L1814.5 389.5L1833.5 389.5L1852.5 389.5L1871.5 389.5L1890.5 389.5M731.5 408.5L750.5 389.5L769.5 389.5L788.5 389.5L807.5 389.5L826.5 389.5L845.5 389.5M560.5 408.5L579.5 427.5L598.5 427.5L617.5 427.5L636.5 427.5L655.5 427.5L674.5 446.5L693.5 446.5M522.5 408.5L541.5 427.5L560.5 427.5L579.5 446.5L598.5 446.5L617.5 446.5L636.5 446.5L655.5 446.5M1491.5 408.5L1510.5 389.5L1529.5 389.5L1548.5 370.5M503.5 427.5L522.5 427.5L541.5 446.5M1700.5 427.5L1719.5 408.5L1738.5 408.5L1757.5 408.5L1776.5 408.5M1548.5 427.5L1567.5 408.5L1586.5 389.5L1605.5 389.5L1624.5 370.5L1643.5 370.5L1662.5 370.5L1681.5 370.5M1415.5 408.5L1434.5 427.5M712.5 408.5L731.5 389.5M1358.5 408.5L1377.5 427.5L1396.5 427.5L1415.5 427.5M1681.5 427.5L1700.5 408.5M940.5 408.5L959.5 389.5L978.5 389.5L997.5 389.5L1016.5 389.5L1035.5 389.5L1054.5 389.5L1073.5 389.5L1092.5 370.5L1111.5 370.5L1130.5 370.5L1149.5 370.5L1168.5 370.5M997.5 408.5L1016.5 427.5L1035.5 446.5M1643.5 427.5L1662.5 446.5L1681.5 446.5M1529.5 408.5L1548.5 408.5L1567.5 389.5L1586.5 370.5L1605.5 370.5L1624.5 351.5L1643.5 332.5L1662.5 332.5L1681.5 332.5L1700.5 332.5L1719.5 332.5L1738.5 332.5L1757.5 332.5L1776.5 351.5L1795.5 351.5L1814.5 351.5L1833.5 351.5L1852.5 370.5L1871.5 370.5L1890.5 370.5M1396.5 408.5L1415.5 389.5L1434.5 389.5L1453.5 389.5L1472.5 389.5M883.5 408.5L902.5 427.5L921.5 427.5L940.5 427.5L959.5 427.5L978.5 427.5L997.5 427.5L1016.5 446.5M902.5 408.5L921.5 389.5L940.5 389.5M180.5 465.5L199.5 446.5L218.5 446.5M-9.5 465.5L9.5 465.5L28.5 465.5L47.5 465.5L66.5 465.5L85.5 465.5L104.5 465.5L123.5 465.5L142.5 465.5L161.5 465.5L180.5 465.5L199.5 465.5L218.5 465.5L237.5 446.5L256.5 446.5L275.5 446.5L294.5 446.5L313.5 446.5L332.5 446.5L351.5 446.5L370.5 446.5L389.5 446.5L408.5 446.5L427.5 446.5L446.5 446.5L465.5 446.5L484.5 446.5L503.5 427.5L522.5 408.5L541.5 408.5L560.5 408.5L579.5 408.5L598.5 408.5L617.5 408.5L636.5 408.5L655.5 408.5L674.5 408.5L693.5 408.5L712.5 408.5L731.5 408.5L750.5 408.5L769.5 408.5L788.5 408.5L807.5 408.5L826.5 408.5L845.5 408.5L864.5 408.5L883.5 408.5L902.5 408.5L921.5 408.5L940.5 408.5L959.5 408.5L978.5 408.5L997.5 408.5L1016.5 408.5L1035.5 408.5L1054.5 408.5L1073.5 408.5L1092.5 408.5L1111.5 408.5L1130.5 408.5L1149.5 408.5L1168.5 408.5L1187.5 408.5L1206.5 408.5L1225.5 408.5L1244.5 408.5L1263.5 408.5L1282.5 408.5L1301.5 408.5L1320.5 408.5L1339.5 408.5L1358.5 408.5L1377.5 408.5L1396.5 408.5L1415.5 408.5L1434.5 408.5L1453.5 408.5L1472.5 408.5L1491.5 408.5L1510.5 408.5L1529.5 408.5L1548.5 427.5L1567.5 427.5L1586.5 427.5L1605.5 427.5L1624.5 427.5L1643.5 427.5L1662.5 427.5L1681.5 427.5L1700.5 427.5L1719.5 427.5" stroke="url(#SvgjsLinearGradient2348)" stroke-width="3.17"></path><path d="M1716.33 427.5 a3.17 3.17 0 1 0 6.34 0 a3.17 3.17 0 1 0 -6.34 0zM766.33 427.5 a3.17 3.17 0 1 0 6.34 0 a3.17 3.17 0 1 0 -6.34 0zM1241.33 427.5 a3.17 3.17 0 1 0 6.34 0 a3.17 3.17 0 1 0 -6.34 0zM1355.33 351.5 a3.17 3.17 0 1 0 6.34 0 a3.17 3.17 0 1 0 -6.34 0zM1887.33 389.5 a3.17 3.17 0 1 0 6.34 0 a3.17 3.17 0 1 0 -6.34 0zM842.33 389.5 a3.17 3.17 0 1 0 6.34 0 a3.17 3.17 0 1 0 -6.34 0zM690.33 446.5 a3.17 3.17 0 1 0 6.34 0 a3.17 3.17 0 1 0 -6.34 0zM652.33 446.5 a3.17 3.17 0 1 0 6.34 0 a3.17 3.17 0 1 0 -6.34 0zM1545.33 370.5 a3.17 3.17 0 1 0 6.34 0 a3.17 3.17 0 1 0 -6.34 0zM538.33 446.5 a3.17 3.17 0 1 0 6.34 0 a3.17 3.17 0 1 0 -6.34 0zM1773.33 408.5 a3.17 3.17 0 1 0 6.34 0 a3.17 3.17 0 1 0 -6.34 0zM1678.33 370.5 a3.17 3.17 0 1 0 6.34 0 a3.17 3.17 0 1 0 -6.34 0zM1431.33 427.5 a3.17 3.17 0 1 0 6.34 0 a3.17 3.17 0 1 0 -6.34 0zM728.33 389.5 a3.17 3.17 0 1 0 6.34 0 a3.17 3.17 0 1 0 -6.34 0zM1412.33 427.5 a3.17 3.17 0 1 0 6.34 0 a3.17 3.17 0 1 0 -6.34 0zM1697.33 408.5 a3.17 3.17 0 1 0 6.34 0 a3.17 3.17 0 1 0 -6.34 0zM1165.33 370.5 a3.17 3.17 0 1 0 6.34 0 a3.17 3.17 0 1 0 -6.34 0zM1032.33 446.5 a3.17 3.17 0 1 0 6.34 0 a3.17 3.17 0 1 0 -6.34 0zM1678.33 446.5 a3.17 3.17 0 1 0 6.34 0 a3.17 3.17 0 1 0 -6.34 0zM1887.33 370.5 a3.17 3.17 0 1 0 6.34 0 a3.17 3.17 0 1 0 -6.34 0zM1469.33 389.5 a3.17 3.17 0 1 0 6.34 0 a3.17 3.17 0 1 0 -6.34 0zM1013.33 446.5 a3.17 3.17 0 1 0 6.34 0 a3.17 3.17 0 1 0 -6.34 0zM937.33 389.5 a3.17 3.17 0 1 0 6.34 0 a3.17 3.17 0 1 0 -6.34 0zM215.33 446.5 a3.17 3.17 0 1 0 6.34 0 a3.17 3.17 0 1 0 -6.34 0z" fill="url(#SvgjsLinearGradient2348)"></path><path d="M-9.5 617.5L9.5 617.5L28.5 617.5L47.5 617.5L66.5 617.5L85.5 617.5L104.5 617.5L123.5 617.5L142.5 617.5L161.5 617.5L180.5 617.5" stroke="url(#SvgjsLinearGradient2348)" stroke-width="3.17"></path><path d="M177.33 617.5 a3.17 3.17 0 1 0 6.34 0 a3.17 3.17 0 1 0 -6.34 0z" fill="url(#SvgjsLinearGradient2348)"></path><path d="M579.5 389.5L598.5 370.5L617.5 370.5L636.5 370.5M522.5 389.5L541.5 370.5L560.5 370.5L579.5 370.5M123.5 446.5L142.5 427.5L161.5 427.5M161.5 446.5L180.5 446.5M104.5 446.5L123.5 427.5M465.5 427.5L484.5 408.5L503.5 389.5M351.5 427.5L370.5 408.5L389.5 408.5L408.5 389.5L427.5 389.5L446.5 389.5L465.5 389.5L484.5 389.5M28.5 446.5L47.5 427.5M332.5 427.5L351.5 408.5L370.5 389.5L389.5 389.5M-9.5 446.5L9.5 446.5L28.5 446.5L47.5 446.5L66.5 446.5L85.5 446.5L104.5 446.5L123.5 446.5L142.5 446.5L161.5 446.5L180.5 427.5L199.5 427.5L218.5 427.5L237.5 427.5L256.5 427.5L275.5 427.5L294.5 427.5L313.5 427.5L332.5 427.5L351.5 427.5L370.5 427.5L389.5 427.5L408.5 427.5L427.5 427.5L446.5 427.5L465.5 427.5L484.5 427.5L503.5 408.5L522.5 389.5L541.5 389.5L560.5 389.5L579.5 389.5L598.5 389.5L617.5 389.5L636.5 389.5L655.5 389.5L674.5 389.5L693.5 389.5" stroke="url(#SvgjsLinearGradient2348)" stroke-width="3.17"></path><path d="M690.33 389.5 a3.17 3.17 0 1 0 6.34 0 a3.17 3.17 0 1 0 -6.34 0zM633.33 370.5 a3.17 3.17 0 1 0 6.34 0 a3.17 3.17 0 1 0 -6.34 0zM576.33 370.5 a3.17 3.17 0 1 0 6.34 0 a3.17 3.17 0 1 0 -6.34 0zM158.33 427.5 a3.17 3.17 0 1 0 6.34 0 a3.17 3.17 0 1 0 -6.34 0zM177.33 446.5 a3.17 3.17 0 1 0 6.34 0 a3.17 3.17 0 1 0 -6.34 0zM120.33 427.5 a3.17 3.17 0 1 0 6.34 0 a3.17 3.17 0 1 0 -6.34 0zM500.33 389.5 a3.17 3.17 0 1 0 6.34 0 a3.17 3.17 0 1 0 -6.34 0zM481.33 389.5 a3.17 3.17 0 1 0 6.34 0 a3.17 3.17 0 1 0 -6.34 0zM44.33 427.5 a3.17 3.17 0 1 0 6.34 0 a3.17 3.17 0 1 0 -6.34 0zM386.33 389.5 a3.17 3.17 0 1 0 6.34 0 a3.17 3.17 0 1 0 -6.34 0z" fill="url(#SvgjsLinearGradient2348)"></path><path d="M161.5 636.5L180.5 655.5M313.5 655.5L332.5 636.5L351.5 636.5L370.5 636.5L389.5 636.5L408.5 636.5L427.5 636.5L446.5 636.5L465.5 636.5L484.5 655.5L503.5 655.5L522.5 655.5L541.5 674.5L560.5 674.5L579.5 674.5L598.5 674.5M1073.5 693.5L1092.5 712.5L1111.5 712.5L1130.5 712.5L1149.5 712.5L1168.5 693.5L1187.5 693.5L1206.5 693.5L1225.5 693.5L1244.5 674.5L1263.5 674.5L1282.5 693.5L1301.5 693.5L1320.5 693.5L1339.5 693.5L1358.5 712.5L1377.5 712.5M959.5 693.5L978.5 693.5L997.5 693.5L1016.5 693.5M351.5 655.5L370.5 655.5L389.5 655.5L408.5 655.5L427.5 674.5L446.5 674.5L465.5 674.5L484.5 674.5L503.5 674.5L522.5 674.5M617.5 693.5L636.5 674.5M807.5 693.5L826.5 674.5L845.5 674.5L864.5 674.5L883.5 674.5M1130.5 693.5L1149.5 674.5L1168.5 674.5M1092.5 693.5L1111.5 674.5L1130.5 674.5L1149.5 655.5L1168.5 655.5L1187.5 655.5L1206.5 655.5L1225.5 655.5M693.5 693.5L712.5 674.5L731.5 674.5L750.5 674.5L769.5 674.5L788.5 674.5L807.5 674.5L826.5 655.5L845.5 655.5L864.5 655.5L883.5 655.5L902.5 636.5L921.5 636.5L940.5 636.5L959.5 655.5L978.5 655.5L997.5 655.5L1016.5 655.5L1035.5 655.5L1054.5 674.5L1073.5 674.5L1092.5 674.5L1111.5 655.5L1130.5 655.5L1149.5 636.5L1168.5 636.5M845.5 693.5L864.5 712.5L883.5 712.5M218.5 636.5L237.5 636.5L256.5 636.5M598.5 693.5L617.5 712.5L636.5 712.5L655.5 712.5L674.5 712.5L693.5 712.5L712.5 712.5L731.5 712.5L750.5 712.5L769.5 712.5L788.5 712.5M826.5 693.5L845.5 712.5L864.5 731.5L883.5 731.5L902.5 731.5L921.5 731.5L940.5 731.5M1054.5 693.5L1073.5 712.5L1092.5 731.5M-9.5 636.5L9.5 636.5L28.5 636.5L47.5 636.5L66.5 636.5L85.5 636.5L104.5 636.5L123.5 636.5L142.5 636.5L161.5 636.5L180.5 636.5L199.5 636.5L218.5 636.5L237.5 655.5L256.5 655.5L275.5 655.5L294.5 655.5L313.5 655.5L332.5 655.5L351.5 655.5L370.5 674.5L389.5 674.5L408.5 674.5L427.5 693.5L446.5 693.5L465.5 693.5L484.5 693.5L503.5 693.5L522.5 693.5L541.5 693.5L560.5 693.5L579.5 693.5L598.5 693.5L617.5 693.5L636.5 693.5L655.5 693.5L674.5 693.5L693.5 693.5L712.5 693.5L731.5 693.5L750.5 693.5L769.5 693.5L788.5 693.5L807.5 693.5L826.5 693.5L845.5 693.5L864.5 693.5L883.5 693.5L902.5 693.5L921.5 693.5L940.5 693.5L959.5 693.5L978.5 674.5L997.5 674.5L1016.5 674.5L1035.5 693.5L1054.5 693.5L1073.5 693.5L1092.5 693.5L1111.5 693.5L1130.5 693.5L1149.5 693.5" stroke="url(#SvgjsLinearGradient2348)" stroke-width="3.17"></path><path d="M1146.33 693.5 a3.17 3.17 0 1 0 6.34 0 a3.17 3.17 0 1 0 -6.34 0zM177.33 655.5 a3.17 3.17 0 1 0 6.34 0 a3.17 3.17 0 1 0 -6.34 0zM595.33 674.5 a3.17 3.17 0 1 0 6.34 0 a3.17 3.17 0 1 0 -6.34 0zM1374.33 712.5 a3.17 3.17 0 1 0 6.34 0 a3.17 3.17 0 1 0 -6.34 0zM1013.33 693.5 a3.17 3.17 0 1 0 6.34 0 a3.17 3.17 0 1 0 -6.34 0zM519.33 674.5 a3.17 3.17 0 1 0 6.34 0 a3.17 3.17 0 1 0 -6.34 0zM633.33 674.5 a3.17 3.17 0 1 0 6.34 0 a3.17 3.17 0 1 0 -6.34 0zM880.33 674.5 a3.17 3.17 0 1 0 6.34 0 a3.17 3.17 0 1 0 -6.34 0zM1165.33 674.5 a3.17 3.17 0 1 0 6.34 0 a3.17 3.17 0 1 0 -6.34 0zM1222.33 655.5 a3.17 3.17 0 1 0 6.34 0 a3.17 3.17 0 1 0 -6.34 0zM1165.33 636.5 a3.17 3.17 0 1 0 6.34 0 a3.17 3.17 0 1 0 -6.34 0zM880.33 712.5 a3.17 3.17 0 1 0 6.34 0 a3.17 3.17 0 1 0 -6.34 0zM253.33 636.5 a3.17 3.17 0 1 0 6.34 0 a3.17 3.17 0 1 0 -6.34 0zM785.33 712.5 a3.17 3.17 0 1 0 6.34 0 a3.17 3.17 0 1 0 -6.34 0zM937.33 731.5 a3.17 3.17 0 1 0 6.34 0 a3.17 3.17 0 1 0 -6.34 0zM1089.33 731.5 a3.17 3.17 0 1 0 6.34 0 a3.17 3.17 0 1 0 -6.34 0z" fill="url(#SvgjsLinearGradient2348)"></path><path d="M294.5 408.5L313.5 389.5L332.5 389.5M85.5 408.5L104.5 427.5M256.5 408.5L275.5 389.5L294.5 389.5M237.5 408.5L256.5 389.5M-9.5 427.5L9.5 427.5L28.5 408.5L47.5 408.5L66.5 408.5L85.5 408.5L104.5 408.5L123.5 408.5L142.5 408.5L161.5 408.5L180.5 408.5L199.5 408.5L218.5 408.5L237.5 408.5L256.5 408.5L275.5 408.5L294.5 408.5L313.5 408.5" stroke="url(#SvgjsLinearGradient2348)" stroke-width="3.17"></path><path d="M310.33 408.5 a3.17 3.17 0 1 0 6.34 0 a3.17 3.17 0 1 0 -6.34 0zM329.33 389.5 a3.17 3.17 0 1 0 6.34 0 a3.17 3.17 0 1 0 -6.34 0zM101.33 427.5 a3.17 3.17 0 1 0 6.34 0 a3.17 3.17 0 1 0 -6.34 0zM291.33 389.5 a3.17 3.17 0 1 0 6.34 0 a3.17 3.17 0 1 0 -6.34 0zM253.33 389.5 a3.17 3.17 0 1 0 6.34 0 a3.17 3.17 0 1 0 -6.34 0z" fill="url(#SvgjsLinearGradient2348)"></path><path d="M85.5 655.5L104.5 674.5L123.5 674.5L142.5 674.5M313.5 674.5L332.5 693.5L351.5 693.5M389.5 693.5L408.5 712.5L427.5 731.5M256.5 674.5L275.5 693.5L294.5 693.5L313.5 693.5L332.5 712.5L351.5 712.5L370.5 712.5L389.5 712.5M617.5 731.5L636.5 750.5L655.5 750.5L674.5 750.5L693.5 750.5L712.5 750.5L731.5 750.5L750.5 769.5L769.5 769.5L788.5 769.5L807.5 769.5L826.5 769.5L845.5 769.5L864.5 769.5L883.5 769.5M465.5 731.5L484.5 712.5L503.5 712.5L522.5 712.5L541.5 712.5L560.5 712.5M484.5 731.5L503.5 750.5L522.5 750.5L541.5 750.5L560.5 750.5M446.5 712.5L465.5 712.5M142.5 655.5L161.5 655.5M750.5 731.5L769.5 750.5L788.5 750.5M-9.5 655.5L9.5 655.5L28.5 655.5L47.5 655.5L66.5 655.5L85.5 655.5L104.5 655.5L123.5 655.5L142.5 655.5L161.5 674.5L180.5 674.5L199.5 674.5L218.5 674.5L237.5 674.5L256.5 674.5L275.5 674.5L294.5 674.5L313.5 674.5L332.5 674.5L351.5 674.5L370.5 693.5L389.5 693.5L408.5 693.5L427.5 712.5L446.5 712.5L465.5 731.5L484.5 731.5L503.5 731.5L522.5 731.5L541.5 731.5L560.5 731.5L579.5 731.5L598.5 731.5L617.5 731.5L636.5 731.5L655.5 731.5L674.5 731.5L693.5 731.5L712.5 731.5L731.5 731.5L750.5 731.5L769.5 731.5" stroke="url(#SvgjsLinearGradient2348)" stroke-width="3.17"></path><path d="M766.33 731.5 a3.17 3.17 0 1 0 6.34 0 a3.17 3.17 0 1 0 -6.34 0zM139.33 674.5 a3.17 3.17 0 1 0 6.34 0 a3.17 3.17 0 1 0 -6.34 0zM348.33 693.5 a3.17 3.17 0 1 0 6.34 0 a3.17 3.17 0 1 0 -6.34 0zM424.33 731.5 a3.17 3.17 0 1 0 6.34 0 a3.17 3.17 0 1 0 -6.34 0zM386.33 712.5 a3.17 3.17 0 1 0 6.34 0 a3.17 3.17 0 1 0 -6.34 0zM880.33 769.5 a3.17 3.17 0 1 0 6.34 0 a3.17 3.17 0 1 0 -6.34 0zM557.33 712.5 a3.17 3.17 0 1 0 6.34 0 a3.17 3.17 0 1 0 -6.34 0zM557.33 750.5 a3.17 3.17 0 1 0 6.34 0 a3.17 3.17 0 1 0 -6.34 0zM462.33 712.5 a3.17 3.17 0 1 0 6.34 0 a3.17 3.17 0 1 0 -6.34 0zM158.33 655.5 a3.17 3.17 0 1 0 6.34 0 a3.17 3.17 0 1 0 -6.34 0zM785.33 750.5 a3.17 3.17 0 1 0 6.34 0 a3.17 3.17 0 1 0 -6.34 0z" fill="url(#SvgjsLinearGradient2348)"></path><path d="M674.5 351.5L693.5 351.5L712.5 351.5L731.5 351.5L750.5 370.5L769.5 370.5L788.5 370.5M902.5 351.5L921.5 370.5M883.5 351.5L902.5 332.5L921.5 332.5L940.5 332.5L959.5 332.5M693.5 332.5L712.5 313.5L731.5 313.5L750.5 313.5L769.5 313.5L788.5 313.5L807.5 313.5L826.5 313.5L845.5 313.5L864.5 313.5L883.5 313.5L902.5 313.5L921.5 313.5L940.5 313.5L959.5 313.5L978.5 313.5L997.5 313.5L1016.5 313.5L1035.5 313.5M864.5 351.5L883.5 370.5L902.5 370.5M655.5 351.5L674.5 370.5L693.5 370.5L712.5 370.5L731.5 370.5M750.5 351.5L769.5 332.5L788.5 332.5L807.5 332.5L826.5 332.5L845.5 332.5L864.5 332.5L883.5 332.5M826.5 351.5L845.5 370.5L864.5 370.5L883.5 389.5L902.5 389.5M503.5 370.5L522.5 370.5M218.5 389.5L237.5 389.5M940.5 351.5L959.5 351.5M-9.5 408.5L9.5 408.5L28.5 389.5L47.5 389.5L66.5 389.5L85.5 389.5L104.5 389.5L123.5 389.5L142.5 389.5L161.5 389.5L180.5 389.5L199.5 389.5L218.5 389.5L237.5 370.5L256.5 370.5L275.5 370.5L294.5 370.5L313.5 370.5L332.5 370.5L351.5 370.5L370.5 370.5L389.5 370.5L408.5 370.5L427.5 370.5L446.5 370.5L465.5 370.5L484.5 370.5L503.5 370.5L522.5 351.5L541.5 351.5L560.5 351.5L579.5 351.5L598.5 351.5L617.5 351.5L636.5 351.5L655.5 351.5L674.5 351.5L693.5 332.5L712.5 332.5L731.5 332.5L750.5 351.5L769.5 351.5L788.5 351.5L807.5 351.5L826.5 351.5L845.5 351.5L864.5 351.5L883.5 351.5L902.5 351.5L921.5 351.5L940.5 351.5L959.5 370.5" stroke="url(#SvgjsLinearGradient2348)" stroke-width="3.17"></path><path d="M956.33 370.5 a3.17 3.17 0 1 0 6.34 0 a3.17 3.17 0 1 0 -6.34 0zM785.33 370.5 a3.17 3.17 0 1 0 6.34 0 a3.17 3.17 0 1 0 -6.34 0zM918.33 370.5 a3.17 3.17 0 1 0 6.34 0 a3.17 3.17 0 1 0 -6.34 0zM956.33 332.5 a3.17 3.17 0 1 0 6.34 0 a3.17 3.17 0 1 0 -6.34 0zM1032.33 313.5 a3.17 3.17 0 1 0 6.34 0 a3.17 3.17 0 1 0 -6.34 0zM899.33 370.5 a3.17 3.17 0 1 0 6.34 0 a3.17 3.17 0 1 0 -6.34 0zM728.33 370.5 a3.17 3.17 0 1 0 6.34 0 a3.17 3.17 0 1 0 -6.34 0zM880.33 332.5 a3.17 3.17 0 1 0 6.34 0 a3.17 3.17 0 1 0 -6.34 0zM899.33 389.5 a3.17 3.17 0 1 0 6.34 0 a3.17 3.17 0 1 0 -6.34 0zM519.33 370.5 a3.17 3.17 0 1 0 6.34 0 a3.17 3.17 0 1 0 -6.34 0zM234.33 389.5 a3.17 3.17 0 1 0 6.34 0 a3.17 3.17 0 1 0 -6.34 0zM956.33 351.5 a3.17 3.17 0 1 0 6.34 0 a3.17 3.17 0 1 0 -6.34 0z" fill="url(#SvgjsLinearGradient2348)"></path><path d="M28.5 674.5L47.5 674.5L66.5 674.5M294.5 712.5L313.5 712.5M370.5 731.5L389.5 731.5L408.5 731.5L427.5 750.5L446.5 750.5M237.5 693.5L256.5 693.5M-9.5 674.5L9.5 674.5L28.5 674.5L47.5 693.5L66.5 693.5L85.5 693.5L104.5 693.5L123.5 693.5L142.5 693.5L161.5 693.5L180.5 693.5L199.5 693.5L218.5 693.5L237.5 693.5L256.5 712.5L275.5 712.5L294.5 712.5L313.5 731.5L332.5 731.5L351.5 731.5L370.5 731.5L389.5 750.5" stroke="url(#SvgjsLinearGradient2348)" stroke-width="3.17"></path><path d="M386.33 750.5 a3.17 3.17 0 1 0 6.34 0 a3.17 3.17 0 1 0 -6.34 0zM63.33 674.5 a3.17 3.17 0 1 0 6.34 0 a3.17 3.17 0 1 0 -6.34 0zM310.33 712.5 a3.17 3.17 0 1 0 6.34 0 a3.17 3.17 0 1 0 -6.34 0zM443.33 750.5 a3.17 3.17 0 1 0 6.34 0 a3.17 3.17 0 1 0 -6.34 0zM253.33 693.5 a3.17 3.17 0 1 0 6.34 0 a3.17 3.17 0 1 0 -6.34 0z" fill="url(#SvgjsLinearGradient2348)"></path><path d="M427.5 351.5L446.5 332.5L465.5 332.5L484.5 332.5L503.5 332.5L522.5 313.5L541.5 313.5L560.5 313.5L579.5 294.5L598.5 294.5L617.5 313.5L636.5 313.5L655.5 313.5L674.5 313.5M294.5 351.5L313.5 332.5L332.5 332.5L351.5 332.5M104.5 370.5L123.5 351.5L142.5 351.5L161.5 351.5L180.5 351.5L199.5 351.5M256.5 351.5L275.5 332.5L294.5 332.5L313.5 313.5L332.5 313.5L351.5 313.5M237.5 351.5L256.5 332.5L275.5 313.5L294.5 313.5L313.5 294.5M579.5 332.5L598.5 313.5M408.5 351.5L427.5 332.5L446.5 313.5L465.5 313.5M85.5 370.5L104.5 351.5M66.5 370.5L85.5 351.5M-9.5 389.5L9.5 389.5L28.5 370.5L47.5 370.5L66.5 370.5L85.5 370.5L104.5 370.5L123.5 370.5L142.5 370.5L161.5 370.5L180.5 370.5L199.5 370.5L218.5 370.5L237.5 351.5L256.5 351.5L275.5 351.5L294.5 351.5L313.5 351.5L332.5 351.5L351.5 351.5L370.5 351.5L389.5 351.5L408.5 351.5L427.5 351.5L446.5 351.5L465.5 351.5L484.5 351.5L503.5 351.5L522.5 332.5L541.5 332.5L560.5 332.5L579.5 332.5L598.5 332.5L617.5 332.5L636.5 332.5L655.5 332.5" stroke="url(#SvgjsLinearGradient2348)" stroke-width="3.17"></path><path d="M652.33 332.5 a3.17 3.17 0 1 0 6.34 0 a3.17 3.17 0 1 0 -6.34 0zM671.33 313.5 a3.17 3.17 0 1 0 6.34 0 a3.17 3.17 0 1 0 -6.34 0zM348.33 332.5 a3.17 3.17 0 1 0 6.34 0 a3.17 3.17 0 1 0 -6.34 0zM196.33 351.5 a3.17 3.17 0 1 0 6.34 0 a3.17 3.17 0 1 0 -6.34 0zM348.33 313.5 a3.17 3.17 0 1 0 6.34 0 a3.17 3.17 0 1 0 -6.34 0zM310.33 294.5 a3.17 3.17 0 1 0 6.34 0 a3.17 3.17 0 1 0 -6.34 0zM595.33 313.5 a3.17 3.17 0 1 0 6.34 0 a3.17 3.17 0 1 0 -6.34 0zM462.33 313.5 a3.17 3.17 0 1 0 6.34 0 a3.17 3.17 0 1 0 -6.34 0zM101.33 351.5 a3.17 3.17 0 1 0 6.34 0 a3.17 3.17 0 1 0 -6.34 0zM82.33 351.5 a3.17 3.17 0 1 0 6.34 0 a3.17 3.17 0 1 0 -6.34 0z" fill="url(#SvgjsLinearGradient2348)"></path><path d="M579.5 769.5L598.5 750.5M560.5 769.5L579.5 788.5M465.5 769.5L484.5 750.5M522.5 769.5L541.5 788.5L560.5 788.5M-9.5 693.5L9.5 693.5L28.5 693.5L47.5 712.5L66.5 712.5L85.5 712.5L104.5 712.5L123.5 712.5L142.5 712.5L161.5 712.5L180.5 712.5L199.5 712.5L218.5 712.5L237.5 712.5L256.5 731.5L275.5 731.5L294.5 731.5L313.5 750.5L332.5 750.5L351.5 750.5L370.5 750.5L389.5 769.5L408.5 769.5L427.5 769.5L446.5 769.5L465.5 769.5L484.5 769.5L503.5 769.5L522.5 769.5L541.5 769.5L560.5 769.5L579.5 769.5L598.5 769.5L617.5 769.5L636.5 769.5L655.5 769.5L674.5 769.5L693.5 769.5L712.5 769.5L731.5 769.5" stroke="url(#SvgjsLinearGradient2348)" stroke-width="3.17"></path><path d="M728.33 769.5 a3.17 3.17 0 1 0 6.34 0 a3.17 3.17 0 1 0 -6.34 0zM595.33 750.5 a3.17 3.17 0 1 0 6.34 0 a3.17 3.17 0 1 0 -6.34 0zM576.33 788.5 a3.17 3.17 0 1 0 6.34 0 a3.17 3.17 0 1 0 -6.34 0zM481.33 750.5 a3.17 3.17 0 1 0 6.34 0 a3.17 3.17 0 1 0 -6.34 0zM557.33 788.5 a3.17 3.17 0 1 0 6.34 0 a3.17 3.17 0 1 0 -6.34 0z" fill="url(#SvgjsLinearGradient2348)"></path><path d="M199.5 332.5L218.5 332.5L237.5 332.5M180.5 332.5L199.5 313.5L218.5 313.5M47.5 351.5L66.5 351.5M-9.5 370.5L9.5 370.5L28.5 351.5L47.5 351.5L66.5 332.5L85.5 332.5L104.5 332.5L123.5 332.5L142.5 332.5L161.5 332.5L180.5 332.5L199.5 332.5L218.5 351.5" stroke="url(#SvgjsLinearGradient2348)" stroke-width="3.17"></path><path d="M215.33 351.5 a3.17 3.17 0 1 0 6.34 0 a3.17 3.17 0 1 0 -6.34 0zM234.33 332.5 a3.17 3.17 0 1 0 6.34 0 a3.17 3.17 0 1 0 -6.34 0zM215.33 313.5 a3.17 3.17 0 1 0 6.34 0 a3.17 3.17 0 1 0 -6.34 0zM63.33 351.5 a3.17 3.17 0 1 0 6.34 0 a3.17 3.17 0 1 0 -6.34 0z" fill="url(#SvgjsLinearGradient2348)"></path><path d="M1016.5 769.5L1035.5 769.5L1054.5 769.5L1073.5 769.5L1092.5 769.5L1111.5 769.5L1130.5 769.5L1149.5 788.5L1168.5 788.5L1187.5 788.5L1206.5 769.5L1225.5 769.5L1244.5 769.5L1263.5 769.5L1282.5 769.5L1301.5 769.5L1320.5 769.5L1339.5 769.5L1358.5 769.5L1377.5 769.5L1396.5 769.5L1415.5 769.5M807.5 788.5L826.5 807.5L845.5 807.5L864.5 807.5L883.5 807.5M579.5 807.5L598.5 807.5L617.5 807.5L636.5 807.5L655.5 807.5L674.5 807.5L693.5 807.5L712.5 807.5L731.5 807.5L750.5 807.5L769.5 807.5L788.5 807.5L807.5 807.5M997.5 769.5L1016.5 788.5L1035.5 807.5L1054.5 807.5M940.5 788.5L959.5 807.5L978.5 807.5L997.5 807.5L1016.5 807.5M902.5 788.5L921.5 769.5L940.5 769.5L959.5 769.5L978.5 750.5L997.5 750.5L1016.5 750.5L1035.5 731.5L1054.5 731.5L1073.5 731.5L1092.5 750.5L1111.5 750.5M218.5 731.5L237.5 750.5M503.5 788.5L522.5 788.5M959.5 788.5L978.5 788.5L997.5 788.5M921.5 788.5L940.5 807.5M-9.5 712.5L9.5 712.5L28.5 712.5L47.5 731.5L66.5 731.5L85.5 731.5L104.5 731.5L123.5 731.5L142.5 731.5L161.5 731.5L180.5 731.5L199.5 731.5L218.5 731.5L237.5 731.5L256.5 750.5L275.5 750.5L294.5 750.5L313.5 769.5L332.5 769.5L351.5 769.5L370.5 769.5L389.5 788.5L408.5 788.5L427.5 788.5L446.5 788.5L465.5 788.5L484.5 788.5L503.5 788.5L522.5 807.5L541.5 807.5L560.5 807.5L579.5 807.5L598.5 788.5L617.5 788.5L636.5 788.5L655.5 788.5L674.5 788.5L693.5 788.5L712.5 788.5L731.5 788.5L750.5 788.5L769.5 788.5L788.5 788.5L807.5 788.5L826.5 788.5L845.5 788.5L864.5 788.5L883.5 788.5L902.5 788.5L921.5 788.5L940.5 788.5L959.5 788.5L978.5 769.5L997.5 769.5L1016.5 769.5L1035.5 788.5L1054.5 788.5L1073.5 788.5L1092.5 788.5L1111.5 788.5L1130.5 788.5" stroke="url(#SvgjsLinearGradient2348)" stroke-width="3.17"></path><path d="M1127.33 788.5 a3.17 3.17 0 1 0 6.34 0 a3.17 3.17 0 1 0 -6.34 0zM1412.33 769.5 a3.17 3.17 0 1 0 6.34 0 a3.17 3.17 0 1 0 -6.34 0zM880.33 807.5 a3.17 3.17 0 1 0 6.34 0 a3.17 3.17 0 1 0 -6.34 0zM804.33 807.5 a3.17 3.17 0 1 0 6.34 0 a3.17 3.17 0 1 0 -6.34 0zM1051.33 807.5 a3.17 3.17 0 1 0 6.34 0 a3.17 3.17 0 1 0 -6.34 0zM1013.33 807.5 a3.17 3.17 0 1 0 6.34 0 a3.17 3.17 0 1 0 -6.34 0zM1108.33 750.5 a3.17 3.17 0 1 0 6.34 0 a3.17 3.17 0 1 0 -6.34 0zM234.33 750.5 a3.17 3.17 0 1 0 6.34 0 a3.17 3.17 0 1 0 -6.34 0zM519.33 788.5 a3.17 3.17 0 1 0 6.34 0 a3.17 3.17 0 1 0 -6.34 0zM994.33 788.5 a3.17 3.17 0 1 0 6.34 0 a3.17 3.17 0 1 0 -6.34 0zM937.33 807.5 a3.17 3.17 0 1 0 6.34 0 a3.17 3.17 0 1 0 -6.34 0z" fill="url(#SvgjsLinearGradient2348)"></path><path d="M237.5 294.5L256.5 313.5M161.5 313.5L180.5 313.5M-9.5 351.5L9.5 351.5L28.5 332.5L47.5 332.5L66.5 313.5L85.5 313.5L104.5 313.5L123.5 313.5L142.5 313.5L161.5 313.5L180.5 294.5L199.5 294.5L218.5 294.5L237.5 294.5L256.5 294.5L275.5 275.5L294.5 275.5" stroke="url(#SvgjsLinearGradient2348)" stroke-width="3.17"></path><path d="M291.33 275.5 a3.17 3.17 0 1 0 6.34 0 a3.17 3.17 0 1 0 -6.34 0zM253.33 313.5 a3.17 3.17 0 1 0 6.34 0 a3.17 3.17 0 1 0 -6.34 0zM177.33 313.5 a3.17 3.17 0 1 0 6.34 0 a3.17 3.17 0 1 0 -6.34 0z" fill="url(#SvgjsLinearGradient2348)"></path><path d="M1149.5 807.5L1168.5 826.5M465.5 807.5L484.5 826.5L503.5 826.5M997.5 826.5L1016.5 845.5L1035.5 845.5L1054.5 864.5M1339.5 788.5L1358.5 807.5L1377.5 807.5M1263.5 788.5L1282.5 807.5L1301.5 807.5L1320.5 807.5L1339.5 807.5L1358.5 826.5L1377.5 826.5L1396.5 807.5L1415.5 807.5L1434.5 807.5M199.5 750.5L218.5 750.5M1434.5 788.5L1453.5 769.5L1472.5 769.5L1491.5 750.5L1510.5 750.5L1529.5 750.5L1548.5 750.5L1567.5 750.5L1586.5 750.5L1605.5 750.5L1624.5 750.5M978.5 826.5L997.5 845.5M1130.5 807.5L1149.5 826.5L1168.5 845.5L1187.5 845.5L1206.5 845.5L1225.5 845.5L1244.5 845.5L1263.5 845.5M1187.5 807.5L1206.5 807.5L1225.5 807.5L1244.5 807.5L1263.5 807.5L1282.5 826.5L1301.5 826.5L1320.5 826.5L1339.5 826.5L1358.5 845.5M940.5 826.5L959.5 845.5L978.5 845.5M1054.5 826.5L1073.5 826.5L1092.5 826.5M921.5 826.5L940.5 845.5M902.5 826.5L921.5 845.5M1111.5 807.5L1130.5 826.5M-9.5 731.5L9.5 731.5L28.5 731.5L47.5 750.5L66.5 750.5L85.5 750.5L104.5 750.5L123.5 750.5L142.5 750.5L161.5 750.5L180.5 750.5L199.5 750.5L218.5 769.5L237.5 769.5L256.5 769.5L275.5 769.5L294.5 769.5L313.5 788.5L332.5 788.5L351.5 788.5L370.5 788.5L389.5 807.5L408.5 807.5L427.5 807.5L446.5 807.5L465.5 807.5L484.5 807.5L503.5 807.5L522.5 826.5L541.5 826.5L560.5 826.5L579.5 826.5L598.5 826.5L617.5 826.5L636.5 826.5L655.5 826.5L674.5 826.5L693.5 826.5L712.5 826.5L731.5 826.5L750.5 826.5L769.5 826.5L788.5 826.5L807.5 826.5L826.5 826.5L845.5 826.5L864.5 826.5L883.5 826.5L902.5 826.5L921.5 826.5L940.5 826.5L959.5 826.5L978.5 826.5L997.5 826.5L1016.5 826.5L1035.5 826.5L1054.5 826.5L1073.5 807.5L1092.5 807.5L1111.5 807.5L1130.5 807.5L1149.5 807.5L1168.5 807.5L1187.5 807.5L1206.5 788.5L1225.5 788.5L1244.5 788.5L1263.5 788.5L1282.5 788.5L1301.5 788.5L1320.5 788.5L1339.5 788.5L1358.5 788.5L1377.5 788.5L1396.5 788.5L1415.5 788.5L1434.5 788.5L1453.5 788.5" stroke="url(#SvgjsLinearGradient2348)" stroke-width="3.17"></path><path d="M1450.33 788.5 a3.17 3.17 0 1 0 6.34 0 a3.17 3.17 0 1 0 -6.34 0zM1165.33 826.5 a3.17 3.17 0 1 0 6.34 0 a3.17 3.17 0 1 0 -6.34 0zM500.33 826.5 a3.17 3.17 0 1 0 6.34 0 a3.17 3.17 0 1 0 -6.34 0zM1051.33 864.5 a3.17 3.17 0 1 0 6.34 0 a3.17 3.17 0 1 0 -6.34 0zM1374.33 807.5 a3.17 3.17 0 1 0 6.34 0 a3.17 3.17 0 1 0 -6.34 0zM1431.33 807.5 a3.17 3.17 0 1 0 6.34 0 a3.17 3.17 0 1 0 -6.34 0zM215.33 750.5 a3.17 3.17 0 1 0 6.34 0 a3.17 3.17 0 1 0 -6.34 0zM1621.33 750.5 a3.17 3.17 0 1 0 6.34 0 a3.17 3.17 0 1 0 -6.34 0zM994.33 845.5 a3.17 3.17 0 1 0 6.34 0 a3.17 3.17 0 1 0 -6.34 0zM1260.33 845.5 a3.17 3.17 0 1 0 6.34 0 a3.17 3.17 0 1 0 -6.34 0zM1355.33 845.5 a3.17 3.17 0 1 0 6.34 0 a3.17 3.17 0 1 0 -6.34 0zM975.33 845.5 a3.17 3.17 0 1 0 6.34 0 a3.17 3.17 0 1 0 -6.34 0zM1089.33 826.5 a3.17 3.17 0 1 0 6.34 0 a3.17 3.17 0 1 0 -6.34 0zM937.33 845.5 a3.17 3.17 0 1 0 6.34 0 a3.17 3.17 0 1 0 -6.34 0zM918.33 845.5 a3.17 3.17 0 1 0 6.34 0 a3.17 3.17 0 1 0 -6.34 0zM1127.33 826.5 a3.17 3.17 0 1 0 6.34 0 a3.17 3.17 0 1 0 -6.34 0z" fill="url(#SvgjsLinearGradient2348)"></path><path d="M617.5 256.5L636.5 275.5M389.5 256.5L408.5 275.5L427.5 275.5M522.5 256.5L541.5 275.5L560.5 275.5L579.5 275.5L598.5 275.5L617.5 275.5L636.5 294.5L655.5 294.5L674.5 294.5L693.5 294.5L712.5 294.5L731.5 275.5L750.5 275.5L769.5 275.5M370.5 256.5L389.5 275.5L408.5 294.5L427.5 294.5L446.5 294.5L465.5 294.5M351.5 256.5L370.5 275.5L389.5 294.5L408.5 313.5L427.5 313.5M731.5 237.5L750.5 256.5L769.5 256.5L788.5 275.5L807.5 275.5M465.5 256.5L484.5 275.5L503.5 275.5M332.5 256.5L351.5 275.5L370.5 294.5M712.5 237.5L731.5 256.5M674.5 256.5L693.5 256.5L712.5 256.5M-9.5 332.5L9.5 332.5L28.5 313.5L47.5 313.5L66.5 294.5L85.5 294.5L104.5 294.5L123.5 294.5L142.5 294.5L161.5 294.5L180.5 275.5L199.5 275.5L218.5 275.5L237.5 275.5L256.5 275.5L275.5 256.5L294.5 256.5L313.5 256.5L332.5 256.5L351.5 256.5L370.5 256.5L389.5 256.5L408.5 256.5L427.5 256.5L446.5 256.5L465.5 256.5L484.5 256.5L503.5 256.5L522.5 256.5L541.5 256.5L560.5 256.5L579.5 256.5L598.5 256.5L617.5 256.5L636.5 256.5L655.5 256.5L674.5 256.5L693.5 237.5L712.5 237.5L731.5 237.5L750.5 237.5" stroke="url(#SvgjsLinearGradient2348)" stroke-width="3.17"></path><path d="M747.33 237.5 a3.17 3.17 0 1 0 6.34 0 a3.17 3.17 0 1 0 -6.34 0zM633.33 275.5 a3.17 3.17 0 1 0 6.34 0 a3.17 3.17 0 1 0 -6.34 0zM424.33 275.5 a3.17 3.17 0 1 0 6.34 0 a3.17 3.17 0 1 0 -6.34 0zM766.33 275.5 a3.17 3.17 0 1 0 6.34 0 a3.17 3.17 0 1 0 -6.34 0zM462.33 294.5 a3.17 3.17 0 1 0 6.34 0 a3.17 3.17 0 1 0 -6.34 0zM424.33 313.5 a3.17 3.17 0 1 0 6.34 0 a3.17 3.17 0 1 0 -6.34 0zM804.33 275.5 a3.17 3.17 0 1 0 6.34 0 a3.17 3.17 0 1 0 -6.34 0zM500.33 275.5 a3.17 3.17 0 1 0 6.34 0 a3.17 3.17 0 1 0 -6.34 0zM367.33 294.5 a3.17 3.17 0 1 0 6.34 0 a3.17 3.17 0 1 0 -6.34 0zM728.33 256.5 a3.17 3.17 0 1 0 6.34 0 a3.17 3.17 0 1 0 -6.34 0zM709.33 256.5 a3.17 3.17 0 1 0 6.34 0 a3.17 3.17 0 1 0 -6.34 0z" fill="url(#SvgjsLinearGradient2348)"></path><path d="M655.5 845.5L674.5 864.5M541.5 845.5L560.5 864.5L579.5 864.5L598.5 864.5M142.5 769.5L161.5 788.5L180.5 788.5L199.5 788.5M104.5 769.5L123.5 788.5L142.5 788.5M85.5 769.5L104.5 788.5M712.5 845.5L731.5 864.5L750.5 864.5L769.5 864.5L788.5 864.5L807.5 864.5L826.5 864.5M693.5 845.5L712.5 864.5M66.5 769.5L85.5 788.5M636.5 845.5L655.5 864.5M617.5 845.5L636.5 864.5M-9.5 750.5L9.5 750.5L28.5 750.5L47.5 769.5L66.5 769.5L85.5 769.5L104.5 769.5L123.5 769.5L142.5 769.5L161.5 769.5L180.5 769.5L199.5 769.5L218.5 788.5L237.5 788.5L256.5 788.5L275.5 788.5L294.5 788.5L313.5 807.5L332.5 807.5L351.5 807.5L370.5 807.5L389.5 826.5L408.5 826.5L427.5 826.5L446.5 826.5L465.5 845.5L484.5 845.5L503.5 845.5L522.5 845.5L541.5 845.5L560.5 845.5L579.5 845.5L598.5 845.5L617.5 845.5L636.5 845.5L655.5 845.5L674.5 845.5L693.5 845.5L712.5 845.5L731.5 845.5L750.5 845.5L769.5 845.5L788.5 845.5L807.5 845.5L826.5 845.5L845.5 845.5L864.5 845.5L883.5 845.5" stroke="url(#SvgjsLinearGradient2348)" stroke-width="3.17"></path><path d="M880.33 845.5 a3.17 3.17 0 1 0 6.34 0 a3.17 3.17 0 1 0 -6.34 0zM671.33 864.5 a3.17 3.17 0 1 0 6.34 0 a3.17 3.17 0 1 0 -6.34 0zM595.33 864.5 a3.17 3.17 0 1 0 6.34 0 a3.17 3.17 0 1 0 -6.34 0zM196.33 788.5 a3.17 3.17 0 1 0 6.34 0 a3.17 3.17 0 1 0 -6.34 0zM139.33 788.5 a3.17 3.17 0 1 0 6.34 0 a3.17 3.17 0 1 0 -6.34 0zM101.33 788.5 a3.17 3.17 0 1 0 6.34 0 a3.17 3.17 0 1 0 -6.34 0zM823.33 864.5 a3.17 3.17 0 1 0 6.34 0 a3.17 3.17 0 1 0 -6.34 0zM709.33 864.5 a3.17 3.17 0 1 0 6.34 0 a3.17 3.17 0 1 0 -6.34 0zM82.33 788.5 a3.17 3.17 0 1 0 6.34 0 a3.17 3.17 0 1 0 -6.34 0zM652.33 864.5 a3.17 3.17 0 1 0 6.34 0 a3.17 3.17 0 1 0 -6.34 0zM633.33 864.5 a3.17 3.17 0 1 0 6.34 0 a3.17 3.17 0 1 0 -6.34 0z" fill="url(#SvgjsLinearGradient2348)"></path><path d="M940.5 256.5L959.5 237.5L978.5 237.5L997.5 237.5L1016.5 218.5L1035.5 218.5L1054.5 218.5L1073.5 199.5M1111.5 237.5L1130.5 218.5L1149.5 218.5M845.5 237.5L864.5 256.5M1225.5 218.5L1244.5 199.5L1263.5 199.5L1282.5 199.5L1301.5 180.5M959.5 256.5L978.5 275.5L997.5 275.5L1016.5 275.5L1035.5 275.5L1054.5 275.5L1073.5 275.5L1092.5 275.5L1111.5 275.5L1130.5 275.5L1149.5 275.5L1168.5 294.5L1187.5 294.5L1206.5 294.5L1225.5 294.5L1244.5 294.5M28.5 294.5L47.5 294.5M1054.5 237.5L1073.5 256.5L1092.5 256.5L1111.5 256.5L1130.5 256.5L1149.5 256.5M123.5 275.5L142.5 256.5L161.5 256.5M1035.5 256.5L1054.5 256.5M1358.5 199.5L1377.5 180.5M883.5 237.5L902.5 237.5M807.5 218.5L826.5 218.5L845.5 218.5M902.5 256.5L921.5 275.5L940.5 275.5L959.5 275.5L978.5 294.5L997.5 294.5L1016.5 294.5L1035.5 294.5M1206.5 218.5L1225.5 199.5L1244.5 180.5L1263.5 180.5L1282.5 180.5L1301.5 161.5L1320.5 161.5L1339.5 161.5L1358.5 161.5L1377.5 161.5L1396.5 161.5L1415.5 161.5L1434.5 161.5L1453.5 161.5L1472.5 161.5M788.5 218.5L807.5 237.5L826.5 256.5L845.5 256.5L864.5 275.5L883.5 275.5L902.5 275.5L921.5 294.5L940.5 294.5L959.5 294.5M1377.5 199.5L1396.5 218.5L1415.5 218.5M1244.5 218.5L1263.5 237.5L1282.5 237.5L1301.5 237.5L1320.5 237.5L1339.5 237.5L1358.5 218.5L1377.5 218.5L1396.5 237.5L1415.5 237.5L1434.5 237.5L1453.5 237.5L1472.5 237.5L1491.5 237.5L1510.5 237.5L1529.5 218.5L1548.5 218.5L1567.5 218.5L1586.5 218.5L1605.5 237.5M1339.5 180.5L1358.5 180.5M-9.5 313.5L9.5 313.5L28.5 294.5L47.5 275.5L66.5 275.5L85.5 275.5L104.5 275.5L123.5 275.5L142.5 275.5L161.5 275.5L180.5 256.5L199.5 256.5L218.5 256.5L237.5 256.5L256.5 256.5L275.5 237.5L294.5 237.5L313.5 237.5L332.5 237.5L351.5 237.5L370.5 237.5L389.5 237.5L408.5 237.5L427.5 237.5L446.5 237.5L465.5 237.5L484.5 237.5L503.5 237.5L522.5 237.5L541.5 237.5L560.5 237.5L579.5 237.5L598.5 237.5L617.5 237.5L636.5 237.5L655.5 237.5L674.5 237.5L693.5 218.5L712.5 218.5L731.5 218.5L750.5 218.5L769.5 218.5L788.5 218.5L807.5 218.5L826.5 237.5L845.5 237.5L864.5 237.5L883.5 237.5L902.5 256.5L921.5 256.5L940.5 256.5L959.5 256.5L978.5 256.5L997.5 256.5L1016.5 256.5L1035.5 256.5L1054.5 237.5L1073.5 237.5L1092.5 237.5L1111.5 237.5L1130.5 237.5L1149.5 237.5L1168.5 218.5L1187.5 218.5L1206.5 218.5L1225.5 218.5L1244.5 218.5L1263.5 218.5L1282.5 218.5L1301.5 199.5L1320.5 180.5L1339.5 180.5L1358.5 199.5L1377.5 199.5L1396.5 199.5" stroke="url(#SvgjsLinearGradient2348)" stroke-width="3.17"></path><path d="M1393.33 199.5 a3.17 3.17 0 1 0 6.34 0 a3.17 3.17 0 1 0 -6.34 0zM1070.33 199.5 a3.17 3.17 0 1 0 6.34 0 a3.17 3.17 0 1 0 -6.34 0zM1146.33 218.5 a3.17 3.17 0 1 0 6.34 0 a3.17 3.17 0 1 0 -6.34 0zM861.33 256.5 a3.17 3.17 0 1 0 6.34 0 a3.17 3.17 0 1 0 -6.34 0zM1298.33 180.5 a3.17 3.17 0 1 0 6.34 0 a3.17 3.17 0 1 0 -6.34 0zM1241.33 294.5 a3.17 3.17 0 1 0 6.34 0 a3.17 3.17 0 1 0 -6.34 0zM44.33 294.5 a3.17 3.17 0 1 0 6.34 0 a3.17 3.17 0 1 0 -6.34 0zM1146.33 256.5 a3.17 3.17 0 1 0 6.34 0 a3.17 3.17 0 1 0 -6.34 0zM158.33 256.5 a3.17 3.17 0 1 0 6.34 0 a3.17 3.17 0 1 0 -6.34 0zM1051.33 256.5 a3.17 3.17 0 1 0 6.34 0 a3.17 3.17 0 1 0 -6.34 0zM1374.33 180.5 a3.17 3.17 0 1 0 6.34 0 a3.17 3.17 0 1 0 -6.34 0zM899.33 237.5 a3.17 3.17 0 1 0 6.34 0 a3.17 3.17 0 1 0 -6.34 0zM842.33 218.5 a3.17 3.17 0 1 0 6.34 0 a3.17 3.17 0 1 0 -6.34 0zM1032.33 294.5 a3.17 3.17 0 1 0 6.34 0 a3.17 3.17 0 1 0 -6.34 0zM1469.33 161.5 a3.17 3.17 0 1 0 6.34 0 a3.17 3.17 0 1 0 -6.34 0zM956.33 294.5 a3.17 3.17 0 1 0 6.34 0 a3.17 3.17 0 1 0 -6.34 0zM1412.33 218.5 a3.17 3.17 0 1 0 6.34 0 a3.17 3.17 0 1 0 -6.34 0zM1602.33 237.5 a3.17 3.17 0 1 0 6.34 0 a3.17 3.17 0 1 0 -6.34 0zM1355.33 180.5 a3.17 3.17 0 1 0 6.34 0 a3.17 3.17 0 1 0 -6.34 0z" fill="url(#SvgjsLinearGradient2348)"></path><path d="M1149.5 864.5L1168.5 883.5L1187.5 883.5L1206.5 883.5L1225.5 883.5M902.5 864.5L921.5 883.5L940.5 883.5L959.5 883.5L978.5 883.5L997.5 883.5L1016.5 902.5L1035.5 902.5L1054.5 902.5L1073.5 902.5L1092.5 902.5L1111.5 902.5L1130.5 902.5M712.5 883.5L731.5 902.5L750.5 921.5L769.5 921.5L788.5 940.5M579.5 883.5L598.5 902.5L617.5 902.5L636.5 902.5L655.5 902.5M693.5 883.5L712.5 902.5L731.5 921.5L750.5 940.5L769.5 940.5L788.5 959.5L807.5 978.5L826.5 978.5L845.5 978.5L864.5 978.5L883.5 978.5L902.5 978.5L921.5 978.5L940.5 978.5L959.5 978.5L978.5 978.5L997.5 978.5L1016.5 978.5L1035.5 978.5L1054.5 978.5M1643.5 845.5L1662.5 845.5L1681.5 845.5L1700.5 826.5L1719.5 826.5L1738.5 826.5L1757.5 826.5L1776.5 826.5L1795.5 826.5M807.5 883.5L826.5 902.5L845.5 902.5L864.5 902.5L883.5 902.5L902.5 902.5L921.5 902.5L940.5 902.5M1054.5 883.5L1073.5 883.5L1092.5 883.5L1111.5 883.5L1130.5 883.5L1149.5 883.5L1168.5 902.5L1187.5 902.5L1206.5 902.5M1396.5 845.5L1415.5 826.5L1434.5 826.5L1453.5 826.5L1472.5 826.5L1491.5 826.5L1510.5 826.5L1529.5 826.5L1548.5 826.5L1567.5 826.5L1586.5 807.5L1605.5 807.5L1624.5 807.5L1643.5 807.5L1662.5 807.5L1681.5 807.5L1700.5 807.5L1719.5 807.5L1738.5 788.5L1757.5 788.5L1776.5 788.5M1605.5 845.5L1624.5 864.5L1643.5 864.5L1662.5 864.5L1681.5 864.5L1700.5 864.5L1719.5 864.5L1738.5 864.5L1757.5 864.5L1776.5 864.5L1795.5 864.5L1814.5 864.5L1833.5 864.5L1852.5 864.5L1871.5 864.5L1890.5 864.5M1301.5 864.5L1320.5 883.5L1339.5 883.5L1358.5 883.5L1377.5 883.5L1396.5 883.5L1415.5 883.5L1434.5 883.5L1453.5 883.5L1472.5 883.5L1491.5 883.5L1510.5 883.5L1529.5 883.5M1586.5 845.5L1605.5 864.5L1624.5 883.5L1643.5 883.5L1662.5 883.5L1681.5 883.5L1700.5 883.5L1719.5 883.5L1738.5 883.5L1757.5 883.5L1776.5 883.5L1795.5 883.5L1814.5 883.5L1833.5 883.5L1852.5 883.5L1871.5 883.5L1890.5 883.5M427.5 845.5L446.5 864.5L465.5 883.5L484.5 883.5L503.5 902.5L522.5 921.5L541.5 940.5L560.5 940.5M1472.5 845.5L1491.5 864.5L1510.5 864.5L1529.5 864.5L1548.5 864.5L1567.5 864.5L1586.5 864.5L1605.5 883.5L1624.5 902.5L1643.5 902.5L1662.5 902.5L1681.5 902.5L1700.5 921.5M883.5 864.5L902.5 883.5M864.5 864.5L883.5 883.5M47.5 788.5L66.5 788.5M503.5 883.5L522.5 864.5L541.5 864.5M1130.5 864.5L1149.5 845.5M408.5 845.5L427.5 864.5L446.5 883.5L465.5 902.5L484.5 921.5L503.5 921.5L522.5 940.5L541.5 959.5M560.5 883.5L579.5 902.5L598.5 921.5L617.5 921.5L636.5 940.5L655.5 940.5L674.5 940.5L693.5 921.5L712.5 921.5L731.5 940.5L750.5 959.5L769.5 959.5L788.5 978.5L807.5 997.5L826.5 997.5L845.5 997.5L864.5 997.5L883.5 1016.5L902.5 1016.5L921.5 1016.5L940.5 1016.5L959.5 1016.5L978.5 1016.5L997.5 1016.5L1016.5 1035.5L1035.5 1035.5L1054.5 1035.5L1073.5 1035.5L1092.5 1035.5M750.5 883.5L769.5 902.5L788.5 902.5L807.5 902.5L826.5 921.5L845.5 921.5L864.5 921.5L883.5 921.5L902.5 921.5L921.5 921.5L940.5 921.5L959.5 921.5L978.5 921.5L997.5 921.5L1016.5 921.5L1035.5 940.5L1054.5 940.5L1073.5 940.5L1092.5 921.5L1111.5 921.5L1130.5 921.5L1149.5 921.5L1168.5 921.5M-9.5 769.5L9.5 769.5L28.5 769.5L47.5 788.5L66.5 807.5L85.5 807.5L104.5 807.5L123.5 807.5L142.5 807.5L161.5 807.5L180.5 807.5L199.5 807.5L218.5 807.5L237.5 807.5L256.5 807.5L275.5 807.5L294.5 807.5L313.5 826.5L332.5 826.5L351.5 826.5L370.5 826.5L389.5 845.5L408.5 845.5L427.5 845.5L446.5 845.5L465.5 864.5L484.5 864.5L503.5 883.5L522.5 883.5L541.5 883.5L560.5 883.5L579.5 883.5L598.5 883.5L617.5 883.5L636.5 883.5L655.5 883.5L674.5 883.5L693.5 883.5L712.5 883.5L731.5 883.5L750.5 883.5L769.5 883.5L788.5 883.5L807.5 883.5L826.5 883.5L845.5 883.5L864.5 864.5L883.5 864.5L902.5 864.5L921.5 864.5L940.5 864.5L959.5 864.5L978.5 864.5L997.5 864.5L1016.5 883.5L1035.5 883.5L1054.5 883.5L1073.5 864.5L1092.5 864.5L1111.5 864.5L1130.5 864.5L1149.5 864.5L1168.5 864.5L1187.5 864.5L1206.5 864.5L1225.5 864.5L1244.5 864.5L1263.5 864.5L1282.5 864.5L1301.5 864.5L1320.5 864.5L1339.5 864.5L1358.5 864.5L1377.5 845.5L1396.5 845.5L1415.5 845.5L1434.5 845.5L1453.5 845.5L1472.5 845.5L1491.5 845.5L1510.5 845.5L1529.5 845.5L1548.5 845.5L1567.5 845.5L1586.5 845.5L1605.5 845.5L1624.5 845.5L1643.5 845.5L1662.5 826.5L1681.5 826.5" stroke="url(#SvgjsLinearGradient2348)" stroke-width="3.17"></path><path d="M1678.33 826.5 a3.17 3.17 0 1 0 6.34 0 a3.17 3.17 0 1 0 -6.34 0zM1222.33 883.5 a3.17 3.17 0 1 0 6.34 0 a3.17 3.17 0 1 0 -6.34 0zM1127.33 902.5 a3.17 3.17 0 1 0 6.34 0 a3.17 3.17 0 1 0 -6.34 0zM785.33 940.5 a3.17 3.17 0 1 0 6.34 0 a3.17 3.17 0 1 0 -6.34 0zM652.33 902.5 a3.17 3.17 0 1 0 6.34 0 a3.17 3.17 0 1 0 -6.34 0zM1051.33 978.5 a3.17 3.17 0 1 0 6.34 0 a3.17 3.17 0 1 0 -6.34 0zM1792.33 826.5 a3.17 3.17 0 1 0 6.34 0 a3.17 3.17 0 1 0 -6.34 0zM937.33 902.5 a3.17 3.17 0 1 0 6.34 0 a3.17 3.17 0 1 0 -6.34 0zM1203.33 902.5 a3.17 3.17 0 1 0 6.34 0 a3.17 3.17 0 1 0 -6.34 0zM1773.33 788.5 a3.17 3.17 0 1 0 6.34 0 a3.17 3.17 0 1 0 -6.34 0zM1887.33 864.5 a3.17 3.17 0 1 0 6.34 0 a3.17 3.17 0 1 0 -6.34 0zM1526.33 883.5 a3.17 3.17 0 1 0 6.34 0 a3.17 3.17 0 1 0 -6.34 0zM1887.33 883.5 a3.17 3.17 0 1 0 6.34 0 a3.17 3.17 0 1 0 -6.34 0zM557.33 940.5 a3.17 3.17 0 1 0 6.34 0 a3.17 3.17 0 1 0 -6.34 0zM1697.33 921.5 a3.17 3.17 0 1 0 6.34 0 a3.17 3.17 0 1 0 -6.34 0zM899.33 883.5 a3.17 3.17 0 1 0 6.34 0 a3.17 3.17 0 1 0 -6.34 0zM880.33 883.5 a3.17 3.17 0 1 0 6.34 0 a3.17 3.17 0 1 0 -6.34 0zM63.33 788.5 a3.17 3.17 0 1 0 6.34 0 a3.17 3.17 0 1 0 -6.34 0zM538.33 864.5 a3.17 3.17 0 1 0 6.34 0 a3.17 3.17 0 1 0 -6.34 0zM1146.33 845.5 a3.17 3.17 0 1 0 6.34 0 a3.17 3.17 0 1 0 -6.34 0zM538.33 959.5 a3.17 3.17 0 1 0 6.34 0 a3.17 3.17 0 1 0 -6.34 0zM1089.33 1035.5 a3.17 3.17 0 1 0 6.34 0 a3.17 3.17 0 1 0 -6.34 0zM1165.33 921.5 a3.17 3.17 0 1 0 6.34 0 a3.17 3.17 0 1 0 -6.34 0z" fill="url(#SvgjsLinearGradient2348)"></path><path d="M1092.5 199.5L1111.5 180.5L1130.5 180.5L1149.5 180.5L1168.5 180.5L1187.5 180.5L1206.5 180.5L1225.5 180.5L1244.5 161.5L1263.5 161.5L1282.5 161.5L1301.5 142.5L1320.5 142.5L1339.5 142.5L1358.5 142.5L1377.5 142.5L1396.5 142.5L1415.5 142.5L1434.5 142.5L1453.5 142.5L1472.5 142.5L1491.5 142.5L1510.5 142.5L1529.5 142.5M1073.5 180.5L1092.5 180.5L1111.5 161.5L1130.5 161.5L1149.5 161.5L1168.5 161.5L1187.5 161.5L1206.5 161.5L1225.5 161.5M1054.5 180.5L1073.5 161.5L1092.5 161.5L1111.5 142.5L1130.5 142.5M104.5 256.5L123.5 256.5M902.5 218.5L921.5 218.5L940.5 237.5M959.5 180.5L978.5 199.5L997.5 199.5L1016.5 199.5M978.5 180.5L997.5 161.5L1016.5 161.5L1035.5 161.5M921.5 199.5L940.5 199.5L959.5 199.5L978.5 218.5L997.5 218.5M940.5 180.5L959.5 161.5L978.5 161.5L997.5 142.5L1016.5 142.5M845.5 199.5L864.5 199.5L883.5 199.5M1035.5 180.5L1054.5 199.5M-9.5 294.5L9.5 294.5L28.5 275.5L47.5 256.5L66.5 256.5L85.5 256.5L104.5 256.5L123.5 237.5L142.5 237.5L161.5 237.5L180.5 237.5L199.5 237.5L218.5 237.5L237.5 237.5L256.5 237.5L275.5 218.5L294.5 218.5L313.5 218.5L332.5 218.5L351.5 218.5L370.5 218.5L389.5 218.5L408.5 218.5L427.5 218.5L446.5 218.5L465.5 218.5L484.5 218.5L503.5 218.5L522.5 218.5L541.5 218.5L560.5 218.5L579.5 218.5L598.5 218.5L617.5 218.5L636.5 218.5L655.5 218.5L674.5 218.5L693.5 199.5L712.5 199.5L731.5 199.5L750.5 199.5L769.5 199.5L788.5 199.5L807.5 199.5L826.5 199.5L845.5 199.5L864.5 218.5L883.5 218.5L902.5 218.5L921.5 199.5L940.5 180.5L959.5 180.5L978.5 180.5L997.5 180.5L1016.5 180.5L1035.5 180.5L1054.5 180.5L1073.5 180.5L1092.5 199.5L1111.5 199.5L1130.5 199.5L1149.5 199.5L1168.5 199.5" stroke="url(#SvgjsLinearGradient2348)" stroke-width="3.17"></path><path d="M1165.33 199.5 a3.17 3.17 0 1 0 6.34 0 a3.17 3.17 0 1 0 -6.34 0zM1526.33 142.5 a3.17 3.17 0 1 0 6.34 0 a3.17 3.17 0 1 0 -6.34 0zM1222.33 161.5 a3.17 3.17 0 1 0 6.34 0 a3.17 3.17 0 1 0 -6.34 0zM1127.33 142.5 a3.17 3.17 0 1 0 6.34 0 a3.17 3.17 0 1 0 -6.34 0zM120.33 256.5 a3.17 3.17 0 1 0 6.34 0 a3.17 3.17 0 1 0 -6.34 0zM937.33 237.5 a3.17 3.17 0 1 0 6.34 0 a3.17 3.17 0 1 0 -6.34 0zM1013.33 199.5 a3.17 3.17 0 1 0 6.34 0 a3.17 3.17 0 1 0 -6.34 0zM1032.33 161.5 a3.17 3.17 0 1 0 6.34 0 a3.17 3.17 0 1 0 -6.34 0zM994.33 218.5 a3.17 3.17 0 1 0 6.34 0 a3.17 3.17 0 1 0 -6.34 0zM1013.33 142.5 a3.17 3.17 0 1 0 6.34 0 a3.17 3.17 0 1 0 -6.34 0zM880.33 199.5 a3.17 3.17 0 1 0 6.34 0 a3.17 3.17 0 1 0 -6.34 0zM1051.33 199.5 a3.17 3.17 0 1 0 6.34 0 a3.17 3.17 0 1 0 -6.34 0z" fill="url(#SvgjsLinearGradient2348)"></path><path d="M9.5 788.5L28.5 807.5L47.5 826.5L66.5 845.5L85.5 845.5L104.5 845.5L123.5 845.5M332.5 845.5L351.5 864.5M218.5 826.5L237.5 845.5L256.5 845.5L275.5 845.5L294.5 845.5L313.5 864.5L332.5 864.5L351.5 883.5M142.5 826.5L161.5 845.5L180.5 845.5M199.5 826.5L218.5 845.5L237.5 864.5M-9.5 788.5L9.5 788.5L28.5 788.5L47.5 807.5L66.5 826.5L85.5 826.5L104.5 826.5L123.5 826.5L142.5 826.5L161.5 826.5L180.5 826.5L199.5 826.5L218.5 826.5L237.5 826.5L256.5 826.5L275.5 826.5L294.5 826.5L313.5 845.5L332.5 845.5L351.5 845.5L370.5 845.5L389.5 864.5" stroke="url(#SvgjsLinearGradient2348)" stroke-width="3.17"></path><path d="M386.33 864.5 a3.17 3.17 0 1 0 6.34 0 a3.17 3.17 0 1 0 -6.34 0zM120.33 845.5 a3.17 3.17 0 1 0 6.34 0 a3.17 3.17 0 1 0 -6.34 0zM348.33 864.5 a3.17 3.17 0 1 0 6.34 0 a3.17 3.17 0 1 0 -6.34 0zM348.33 883.5 a3.17 3.17 0 1 0 6.34 0 a3.17 3.17 0 1 0 -6.34 0zM177.33 845.5 a3.17 3.17 0 1 0 6.34 0 a3.17 3.17 0 1 0 -6.34 0zM234.33 864.5 a3.17 3.17 0 1 0 6.34 0 a3.17 3.17 0 1 0 -6.34 0z" fill="url(#SvgjsLinearGradient2348)"></path><path d="M408.5 199.5L427.5 180.5L446.5 180.5L465.5 180.5L484.5 180.5L503.5 180.5L522.5 180.5L541.5 180.5M655.5 199.5L674.5 199.5M731.5 180.5L750.5 161.5M617.5 199.5L636.5 180.5L655.5 180.5L674.5 161.5L693.5 161.5M66.5 237.5L85.5 218.5L104.5 218.5L123.5 199.5L142.5 199.5L161.5 199.5L180.5 199.5L199.5 199.5L218.5 199.5L237.5 199.5L256.5 199.5L275.5 180.5M294.5 199.5L313.5 180.5L332.5 180.5L351.5 180.5L370.5 180.5L389.5 180.5L408.5 180.5M883.5 180.5L902.5 180.5L921.5 180.5L940.5 161.5L959.5 142.5L978.5 142.5L997.5 123.5L1016.5 123.5L1035.5 123.5L1054.5 123.5L1073.5 142.5L1092.5 142.5M864.5 180.5L883.5 161.5L902.5 161.5L921.5 161.5M47.5 237.5L66.5 218.5L85.5 199.5L104.5 199.5L123.5 180.5L142.5 180.5L161.5 180.5L180.5 180.5L199.5 180.5L218.5 180.5L237.5 180.5L256.5 180.5L275.5 161.5L294.5 161.5L313.5 161.5L332.5 161.5L351.5 161.5M579.5 199.5L598.5 180.5M769.5 180.5L788.5 161.5L807.5 161.5L826.5 161.5M712.5 180.5L731.5 161.5L750.5 142.5L769.5 142.5L788.5 123.5L807.5 123.5L826.5 123.5L845.5 123.5L864.5 123.5L883.5 123.5L902.5 123.5L921.5 123.5L940.5 123.5L959.5 123.5M-9.5 275.5L9.5 275.5L28.5 256.5L47.5 237.5L66.5 237.5L85.5 237.5L104.5 237.5L123.5 218.5L142.5 218.5L161.5 218.5L180.5 218.5L199.5 218.5L218.5 218.5L237.5 218.5L256.5 218.5L275.5 199.5L294.5 199.5L313.5 199.5L332.5 199.5L351.5 199.5L370.5 199.5L389.5 199.5L408.5 199.5L427.5 199.5L446.5 199.5L465.5 199.5L484.5 199.5L503.5 199.5L522.5 199.5L541.5 199.5L560.5 199.5L579.5 199.5L598.5 199.5L617.5 199.5L636.5 199.5L655.5 199.5L674.5 180.5L693.5 180.5L712.5 180.5L731.5 180.5L750.5 180.5L769.5 180.5L788.5 180.5L807.5 180.5L826.5 180.5L845.5 180.5L864.5 180.5L883.5 180.5L902.5 199.5" stroke="url(#SvgjsLinearGradient2348)" stroke-width="3.17"></path><path d="M899.33 199.5 a3.17 3.17 0 1 0 6.34 0 a3.17 3.17 0 1 0 -6.34 0zM538.33 180.5 a3.17 3.17 0 1 0 6.34 0 a3.17 3.17 0 1 0 -6.34 0zM671.33 199.5 a3.17 3.17 0 1 0 6.34 0 a3.17 3.17 0 1 0 -6.34 0zM747.33 161.5 a3.17 3.17 0 1 0 6.34 0 a3.17 3.17 0 1 0 -6.34 0zM690.33 161.5 a3.17 3.17 0 1 0 6.34 0 a3.17 3.17 0 1 0 -6.34 0zM272.33 180.5 a3.17 3.17 0 1 0 6.34 0 a3.17 3.17 0 1 0 -6.34 0zM405.33 180.5 a3.17 3.17 0 1 0 6.34 0 a3.17 3.17 0 1 0 -6.34 0zM1089.33 142.5 a3.17 3.17 0 1 0 6.34 0 a3.17 3.17 0 1 0 -6.34 0zM918.33 161.5 a3.17 3.17 0 1 0 6.34 0 a3.17 3.17 0 1 0 -6.34 0zM348.33 161.5 a3.17 3.17 0 1 0 6.34 0 a3.17 3.17 0 1 0 -6.34 0zM595.33 180.5 a3.17 3.17 0 1 0 6.34 0 a3.17 3.17 0 1 0 -6.34 0zM823.33 161.5 a3.17 3.17 0 1 0 6.34 0 a3.17 3.17 0 1 0 -6.34 0zM956.33 123.5 a3.17 3.17 0 1 0 6.34 0 a3.17 3.17 0 1 0 -6.34 0z" fill="url(#SvgjsLinearGradient2348)"></path></g></g><defs><mask id="SvgjsMask2346"><rect width="1920" height="1080" fill="#ffffff"></rect></mask><linearGradient x1="50%" y1="0%" x2="50%" y2="100%" gradientUnits="userSpaceOnUse" id="SvgjsLinearGradient2347"><stop stop-color="#0e2a47" offset="0"></stop><stop stop-color="#00459e" offset="1"></stop></linearGradient><linearGradient x1="0" y1="540" x2="1920" y2="540" gradientUnits="userSpaceOnUse" id="SvgjsLinearGradient2348"><stop stop-color="rgba(58, 124, 195, 1)" offset="0.28"></stop><stop stop-color="rgba(255, 0, 42, 1)" offset="1"></stop></linearGradient></defs></svg>